<svg id="Layer_2" data-name="Layer 2" xmlns="http://www.w3.org/2000/svg" viewBox="0 0 1310.65 752"><defs><style>.cls-1{fill:#fa0;}.cls-2{fill:#ffb100;}.cls-3{fill:#ffb800;}.cls-4{fill:#ffbf00;}.cls-5{fill:#ffc500;}.cls-6{fill:#fc0;}.cls-7{fill:#ffd624;}.cls-8{fill:#ffe038;}.cls-9{fill:#ffeb49;}.cls-10{fill:#fff558;}.cls-11{fill:#ff6;}</style></defs><title>Background</title><rect class="cls-1" x="0.01" width="1310.56" height="752"/><path class="cls-2" d="M387.87,648.45c-89.53-20.51-183-30.23-274.64-18.24a514,514,0,0,0-123.44,31.4V737H681c-94.93-31.21-189-64-284.71-86.67C393.45,649.67,390.65,649.11,387.87,648.45Z" transform="translate(10.21 15)"/><path class="cls-3" d="M1300.37-15H-10.21V661.61a514.08,514.08,0,0,1,123.44-31.49c91.66-12,185.11-2.25,274.64,18.26,2.78.66,5.58,1.32,8.36,1.88C491.9,672.83,586,705.72,680.94,736.94h619.43Z" transform="translate(10.21 15)"/><path class="cls-4" d="M381.65,531.14c2.62.75,5.24,1.6,7.78,2.35,160.71,49.35,318.38,125.49,486.13,166,142.69,34.4,286.28,27.45,424.79-9.58V-15H-10.21V525.4a449.41,449.41,0,0,1,132-29C209.65,490.16,297.52,506,381.65,531.14Z" transform="translate(10.21 15)"/><path class="cls-5" d="M-10.21-15V388.64a403.27,403.27,0,0,1,140.39-26c84.21-.76,166.44,21.33,245.16,51.23l7.29,2.81C533,474.94,682.17,554,843.29,597.22c152.93,41,308.23,32.34,457-11.87V-15Z" transform="translate(10.21 15)"/><path class="cls-6" d="M138.67,228.83c80.44,5.65,157.19,33.09,230.42,67.78,2.29,1,4.5,2.16,6.79,3.24,140.07,67.3,280.71,149,435.19,195.24,162.87,48.65,330.42,38.3,489.27-14V-15H-10.21V251.2A349,349,0,0,1,138.67,228.83Z" transform="translate(10.21 15)"/><path class="cls-7" d="M1300.37-15H-10.21V113.12c51-19.66,104.6-25.85,157.45-18,76.67,11.37,147.84,44.84,215.67,84.21,2.12,1.22,4.17,2.44,6.3,3.66C499,259.22,631.07,343.6,779,392.76c172.42,57.34,352.87,46.06,521.44-15.61V-15Z" transform="translate(10.21 15)"/><path class="cls-8" d="M362.4,66.12c119.42,85.29,243,172,384.32,224.38,170.87,63.35,353.28,57.15,522.5-5,10.48-3.85,20.8-7.89,31.21-12.12V-15H225.78c45.91,20,89,47.57,130.83,77.07C358.55,63.39,360.43,64.81,362.4,66.12Z" transform="translate(10.21 15)"/><path class="cls-9" d="M1300.37-15H397.7c96.74,80.65,199.45,154.63,316.83,203.23,157.1,65.05,327.64,70.17,487.36,19.83a734,734,0,0,0,98.54-39.2V-15Z" transform="translate(10.21 15)"/><path class="cls-10" d="M1134.48,130.51a640.6,640.6,0,0,0,113.57-41.18c17.79-8.35,35.23-17.66,52.35-27.72V-15H516.8C568.32,24.24,623,58.55,682.36,86,825.61,152.42,984.34,169.33,1134.48,130.51Z" transform="translate(10.21 15)"/><path class="cls-11" d="M1067.15,53a549.65,549.65,0,0,0,177.59-68H652.53C781.7,51.74,927.41,79.94,1067.15,53Z" transform="translate(10.21 15)"/></svg>