<svg id="Layer_2" data-name="Layer 2" xmlns="http://www.w3.org/2000/svg" viewBox="0 0 1278.85 604.69"><defs><style>.cls-1{fill:#373773;}</style></defs><title>bg2</title><path class="cls-1" d="M1278.47,702.6c-2.58-.1-5.17-.28-7.75-.28H-.37V264H1V462.06c0,8.35,0,8.35,8.55,8.36H63.13v7.06q0,55.24,0,110.5c0,7,0,7,7.23,7,6.57,0,13.15-.16,19.71,0,3.68.12,4.79-1.33,4.74-4.87-.15-12.1-.06-24.21,0-36.31q0-159.8,0-319.58c0-12.5,0-12.74,12.26-12.81,27.33-.15,54.65,0,82-.11,3.88,0,5.07,1.24,5.05,5-.12,20.91,0,41.83,0,62.75q0,140.34-.15,280.67c0,4.76,1.45,6.41,6.21,6.33,11.58-.2,23.17-.07,34.76.1,4.55.07,5.74-1.87,5.69-6.31-.31-26.62-.24-53.25-.51-79.88-.06-6.27,5.1-5.27,8.33-6.4,7.31-2.54,12.51.5,13.63,8a191,191,0,0,1,2.53,25.21c.33,23.17.09,46.34.11,69.51,0,2.86.24,5.72.42,9.75,5.22-5,9-9.9,13.91-12.88,8.12-4.91,10.39-11.59,9.24-20.31a17.47,17.47,0,0,1,0-5.68c.42-2.11.95-4.63,2.37-6a10.57,10.57,0,0,0,3.51-8.63c-.39-19.75.36-39.51,7.28-58.24,2.93-7.93,7.76-15.26,12.36-22.46,11.2-17.54,23.46-34.35,41.44-45.62,15-9.4,30.48-18.06,45.85-26.86,2.84-1.62,4.3-3.18,4.27-6.72-.13-12.24,0-12.24-11.9-15.65-9.07-2.59-9.1-2.59-9.07-12.17.08-21.95.32-43.91.2-65.87,0-5.22,1.62-7.16,6.88-6.53,3,.36,6.08-.24,7.86-.34V250.4c-6.13-.82-11.09-1.24-15.94-2.19-5.28-1-9.54-4-10.27-9.59s2.92-9,7.35-11.5c11.54-6.41,23.18-8.64,35-.44a5.9,5.9,0,0,0,4.81.28c18.62-7.72,36.06-5.84,52.7,6.37a57.55,57.55,0,0,1,4.19-5.76c9.42-10.21,29.7-7.41,36.26,5,5.14,9.7.07,19.86-11.36,22.34-3.3.72-6.79.63-11.41,1V282.3h15.74c-1,7.51-1.75,14.09-2.65,20.66-2.25,16.55-4.56,33.09-6.83,49.63-.42,3.07-.3,6.3-1.27,9.17a7.37,7.37,0,0,1-4.3,4.12c-12.06,3.52-11.85,3.42-12.2,16-.15,5.29,1.19,7.42,6.69,9.21,24.61,8,48.27,18.6,67.19,36.61,22.88,21.78,37.8,48.31,41.59,80.31q2.24,18.79,4.82,37.55c.41,3,1.41,5.9,2.32,9.59l3.95-3.31c3.9,4.52,9.77,7.73,8.65,15.3-.17,1.17,1,2.94,2,3.81,6.74,5.59,13.61,11,20.47,16.48a43.22,43.22,0,0,0,3.82,2.33c.19-3.55.46-6.37.46-9.18,0-23.18.09-46.35,0-69.52,0-8.59,2.71-16.3,6.77-23.64a16.75,16.75,0,0,1,4-4.73c4-3.28,6.2-2.62,7.63,2.36a31.24,31.24,0,0,1,1.36,8.57q.12,75.74,0,151.49v6.54h24.24c0-14.31-.11-28.43,0-42.55.48-48.93.88-97.86,1.68-146.78.26-16,1.62-32.06,2.5-48.09,1.25-22.71,11.37-41.63,28.14-55.86,11.21-9.51,6.24-26.32-4.78-31.86-12-6.05-15.62-19-8.82-30.89a7.5,7.5,0,0,1,3.15-3.27c9.58-3.79,19.28-7.25,28.85-11,3.89-1.54,8.68-2.68,11.13-5.62,14.75-17.65,27.68-36.6,37.43-57.5,2.68-5.75,3.73-12.24,6-18.2,1.36-3.57,3.7-6.74,5.45-10.17a9.12,9.12,0,0,0,1-3.88c.11-5.87.17-11.76,0-17.63s-3.93-9.87-8.87-11.69c-5.56-2.06-11.62-3-17.55-3.8-8.49-1.1-17.06-1.6-25.59-2.36l-.3-1.78c2.42-1.39,4.85-2.75,7.25-4.17,10.48-6.21,23-9.08,31.25-18.91a178,178,0,0,0,11.66-15.17c1.43-2.13,1.57-5.16,2.2-7.8.46-2-.81-5.31,2.85-4.62,1.13.21,2.47,3.23,2.48,5,.16,24.73.1,49.46.1,74.19,0,1.72.16,3.47,0,5.18-.46,4.41.58,7.14,5.44,8.91,2.84,1,5.37,4.78,6.6,7.87a23.43,23.43,0,0,1,1,10.72c-1.19,11.09,2.86,20.07,10.55,27.53a76.81,76.81,0,0,1,19,29.25c4,11.08,11.8,17.87,24,19.3,4.72.56,9.36,2.42,13.84,4.2,9.66,3.82,13.66,13.14,11,25.06-2.11,9.46-7.29,17-14.58,23.3-6.45,5.53-8.09,9.75-3.88,17.19,4.45,7.87,9.56,15.91,16.18,21.87a41.74,41.74,0,0,1,14.14,26.79c1.86,15.05,3.39,30.21,3.86,45.36,1.79,57.54,3.15,115.1,4.54,172.65.11,4.93,1.53,7.39,6.89,7,2.24-.18,4.56,1.13,6.86,1.22,1.62.06,3.25-1.06,4.91-1.16,3.62-.24,7.26-.18,10.89-.21,8.56-.07,8.56-.06,8.55-8.38q0-50.58,0-101.16,0-175.35,0-350.71c0-3.8.37-7.63,0-11.4-.45-4.86,1.7-6.5,6.22-6.47,11.91.09,23.83,0,35.75,0,9.16,0,18.31,0,27.47.14,2,0,4.07.34,6.61.57v6.47q0,153.83,0,307.65c0,8.69,0,8.68,8.48,8.67,8.3,0,16.61.22,24.9-.08,4.55-.17,6,1.39,6,5.93-.13,47-.07,94.08-.08,141.11,0,7.55-.06,7.58,7.51,7.63,6.75.05,13.49.08,20.24,0,7.83-.06,7.88-.1,7.89-7.77q0-42.27,0-84.55,0-96.76.08-193.51v-6.12l1.49-1c3.67,4,7.35,8,11,12q51.11,56.08,102.22,112.16c12.38,13.53,12.52,13.41,12.52,31.84q0,49.29,0,98.57c0,13.13.16,26.26,0,39.39-.06,4,1,5.48,5.25,5.39,11.58-.25,23.18.18,34.75-.18,5.12-.16,7.27,1.09,6.83,6.55-.25,3.19.81,6.49,1.28,9.74Zm-792.61-420c0-8.51-.32-16.09.11-23.64.3-5.41-2.07-7.88-7.18-9-2.68,7.58-7.33,13.53-14.61,16.65A97.06,97.06,0,0,1,448,271.5c-3.16.75-3.23,2.64-3,5s-.94,6,3,6C460.52,282.69,473.07,282.56,485.86,282.56Zm-82.49-32.43v32.43c9.67,0,19.49-.27,29.28.12,4.54.18,5.08-2,5.31-5.51s-.31-5.07-4.41-5.81C420.52,269,408.94,264.19,403.37,250.13Z" transform="translate(0.37 -97.91)"/></svg>