

<svg id="Layer_2" data-name="Layer 2" xmlns="http://www.w3.org/2000/svg" viewBox="0 0 1284.9 720.1">
    <defs>
        <style>
            .cls-1 {
                fill: #fa0;
            }
            
            .cls-2 {
                fill: #ffb100;
            }
            
            .cls-3 {
                fill: #ffb800;
            }
            
            .cls-4 {
                fill: #ffbf00;
            }
            
            .cls-5 {
                fill: #ffc500;
            }
            
            .cls-6 {
                fill: #fc0;
            }
            
            .cls-7 {
                fill: #ffd624;
            }
            
            .cls-8 {
                fill: #ffe038;
            }
            
            .cls-9 {
                fill: #ffeb49;
            }
            
            .cls-10 {
                fill: #fff558;
            }
            
            .cls-11 {
                fill: #ff6;
            }
            
            .cls-12 {
                fill: #00a7d3;
            }
            
            .cls-13 {
                fill: #21214f;
            }
            
            .cls-14 {
                fill: #aff2d8;
            }
            
            .cls-15 {
                fill: #87ceb7;
            }
            
            .cls-16 {
                fill: #c3fff9;
            }
            
            .cls-17 {
                fill: #8bf2e6;
            }
        </style>
    </defs>
    <title>Hackathon2 BG</title>
    <rect class="cls-1" x="1.5" y="0.04" width="1280.86" height="696.54" />
      

    <path class="cls-2" d="M391.55,614.52c-87.5-19-178.84-28-268.42-16.89A524.93,524.93,0,0,0,2.49,626.71v69.83H678c-92.78-28.91-184.76-59.3-278.26-80.28C397,615.65,394.27,615.13,391.55,614.52Z" transform="translate(-1 0.04)" />
    <path class="cls-3" d="M1283.37,0H2.49V626.71a525.1,525.1,0,0,1,120.64-29.17c89.58-11.08,180.92-2.08,268.42,16.92,2.72.61,5.45,1.22,8.17,1.74,93.5,20.9,185.48,51.37,278.26,80.28h605.39Z" transform="translate(-1 0.04)" />
    <path class="cls-4" d="M385.47,505.86c2.56.7,5.12,1.48,7.6,2.18C550.14,553.75,704.24,624.27,868.19,661.8c139.45,31.86,279.79,25.42,415.16-8.88V0H2.49V500.55a459.67,459.67,0,0,1,129-26.91C217.37,467.9,303.25,482.53,385.47,505.86Z" transform="translate(-1 0.04)" />
    <path class="cls-5" d="M2.49,0V373.87A413.5,413.5,0,0,1,139.7,349.75c82.3-.7,162.67,19.76,239.6,47.45,2.41.87,4.73,1.74,7.13,2.61,147,54,292.75,127.21,450.22,167.26,149.46,38,301.24,29.95,446.62-11V0Z" transform="translate(-1 0.04)" />
    <path class="cls-6" d="M148,225.85c78.61,5.23,153.62,30.65,225.19,62.78,2.24.95,4.4,2,6.64,3,136.9,62.34,274.35,138,425.33,180.84,159.18,45.06,322.93,35.48,478.18-12.93V0H2.49V246.57A358.29,358.29,0,0,1,148,225.85Z" transform="translate(-1 0.04)" />
    <path class="cls-7" d="M1283.37,0H2.49V118.67C52.37,100.46,104.72,94.73,156.37,102c74.93,10.53,144.49,41.53,210.78,78,2.08,1.13,4.08,2.26,6.16,3.39C500.12,254,629.24,332.15,773.82,377.69c168.51,53.11,344.87,42.66,509.62-14.46V0Z" transform="translate(-1 0.04)" />
    <path class="cls-8" d="M366.66,75.14c116.71,79,237.51,159.32,375.61,207.83,167,58.68,345.27,52.93,510.66-4.62,10.24-3.57,20.33-7.31,30.5-11.23V0H233.13C278,18.55,320.13,44.06,361,71.39,362.89,72.61,364.73,73.92,366.66,75.14Z" transform="translate(-1 0.04)" />
    <path class="cls-9" d="M1283.37,0H401.16C495.7,74.7,596.09,143.23,710.81,188.24c153.54,60.25,320.21,65,476.31,18.37a739.86,739.86,0,0,0,96.31-36.31V0Z" transform="translate(-1 0.04)" />
    <path class="cls-10" d="M1121.24,134.78a649.26,649.26,0,0,0,111-38.14c17.38-7.74,34.43-16.36,51.16-25.68V0H517.56c50.35,36.35,103.81,68.13,161.81,93.55C819.37,155.07,974.5,170.74,1121.24,134.78Z" transform="translate(-1 0.04)" />
    <path class="cls-11" d="M1055.44,63A555.54,555.54,0,0,0,1229,0H650.21C776.45,61.82,918.86,87.94,1055.44,63Z" transform="translate(-1 0.04)" />
    <path class="cls-12" d="M1285.84,717.06c-2.58-.1-5.17-.28-7.75-.28H7V278.46H8.37V476.52c0,8.35,0,8.35,8.55,8.36H70.5V602.44c0,7,0,7,7.23,7,6.57,0,13.15-.16,19.71,0,3.68.12,4.79-1.33,4.74-4.87-.15-12.1-.06-24.21,0-36.31V248.68c0-12.5,0-12.74,12.26-12.81,27.33-.15,54.65,0,82-.11,3.88,0,5.07,1.24,5.05,5-.12,20.91,0,41.83,0,62.75q0,140.34-.15,280.67c0,4.76,1.45,6.41,6.21,6.33,11.58-.2,23.17-.07,34.76.1,4.55.07,5.74-1.87,5.69-6.31-.31-26.62-.24-53.25-.51-79.88-.06-6.27,5.1-5.27,8.33-6.4,7.31-2.54,12.51.5,13.63,8A190.35,190.35,0,0,1,272,531.23c.33,23.17.09,46.34.11,69.51,0,2.86.24,5.72.42,9.75,5.22-5,9-9.9,13.91-12.88,8.12-4.91,10.39-11.59,9.24-20.31a17.46,17.46,0,0,1,0-5.68c.42-2.11.95-4.63,2.37-6a10.59,10.59,0,0,0,3.51-8.63c-.39-19.75.36-39.51,7.28-58.24,2.93-7.93,7.76-15.26,12.36-22.46,11.2-17.54,23.46-34.35,41.44-45.62,15-9.4,30.48-18.06,45.85-26.86,2.84-1.62,4.3-3.18,4.27-6.72-.13-12.24,0-12.24-11.9-15.65-9.07-2.59-9.1-2.59-9.07-12.17.08-21.95.32-43.91.2-65.87,0-5.22,1.62-7.16,6.88-6.53,3,.36,6.08-.24,7.86-.34V264.86c-6.13-.82-11.09-1.24-15.94-2.19-5.28-1-9.54-4-10.27-9.59s2.92-9,7.35-11.5c11.54-6.41,23.18-8.64,35-.44a5.9,5.9,0,0,0,4.81.28c18.62-7.72,36.06-5.84,52.7,6.37a59.18,59.18,0,0,1,4.19-5.76c9.42-10.21,29.7-7.41,36.26,5,5.14,9.7.07,19.86-11.36,22.34-3.3.72-6.79.63-11.41,1v26.39h15.74c-1,7.51-1.75,14.09-2.65,20.66-2.25,16.55-4.56,33.09-6.83,49.63-.42,3.07-.3,6.3-1.27,9.17a7.37,7.37,0,0,1-4.3,4.12c-12.06,3.52-11.85,3.42-12.2,16-.15,5.29,1.19,7.42,6.69,9.21,24.61,8,48.27,18.6,67.19,36.61,22.88,21.78,37.8,48.31,41.59,80.31q2.24,18.79,4.82,37.55c.41,3,1.41,5.9,2.32,9.59l4-3.31c3.9,4.52,9.77,7.73,8.65,15.3-.17,1.17,1,2.94,2,3.81,6.74,5.59,13.61,11,20.47,16.48a43.75,43.75,0,0,0,3.82,2.33c.19-3.55.46-6.37.46-9.18,0-23.18.09-46.35,0-69.52,0-8.59,2.71-16.3,6.77-23.64a16.68,16.68,0,0,1,4-4.73c4-3.28,6.2-2.62,7.63,2.36a31.12,31.12,0,0,1,1.36,8.57q.12,75.74,0,151.49v6.54h24.24c0-14.31-.11-28.43,0-42.55.48-48.93.88-97.86,1.68-146.78.26-16,1.62-32.06,2.5-48.09,1.25-22.71,11.37-41.63,28.14-55.86C736,363.32,731.05,346.51,720,341c-12-6.05-15.62-19-8.82-30.89a7.54,7.54,0,0,1,3.15-3.27c9.58-3.79,19.28-7.25,28.85-11,3.89-1.54,8.68-2.68,11.13-5.62,14.75-17.65,27.68-36.6,37.43-57.5,2.68-5.75,3.73-12.24,6-18.2,1.36-3.57,3.7-6.74,5.45-10.17a9,9,0,0,0,1-3.88c.11-5.87.17-11.76,0-17.63s-3.93-9.87-8.87-11.69c-5.56-2.06-11.62-3-17.55-3.8-8.49-1.1-17.06-1.6-25.59-2.36l-.3-1.78c2.42-1.39,4.85-2.75,7.25-4.17,10.48-6.21,23-9.08,31.25-18.91a176.47,176.47,0,0,0,11.66-15.17c1.43-2.13,1.57-5.16,2.2-7.8.46-2-.81-5.31,2.85-4.62,1.13.21,2.47,3.23,2.48,5,.16,24.73.1,49.46.1,74.19,0,1.72.16,3.47,0,5.18-.46,4.41.58,7.14,5.44,8.91,2.84,1,5.37,4.78,6.6,7.87a23.49,23.49,0,0,1,1,10.72c-1.19,11.09,2.86,20.07,10.55,27.53a76.84,76.84,0,0,1,19,29.25c4,11.08,11.8,17.87,24,19.3,4.72.56,9.36,2.42,13.84,4.2,9.66,3.82,13.66,13.14,11,25.06-2.11,9.46-7.29,17-14.58,23.3-6.45,5.53-8.09,9.75-3.88,17.19,4.45,7.87,9.56,15.91,16.18,21.87A41.72,41.72,0,0,1,913,418.87c1.86,15.05,3.39,30.21,3.86,45.36,1.79,57.54,3.15,115.1,4.54,172.65.11,4.93,1.53,7.39,6.89,7,2.24-.18,4.56,1.13,6.86,1.22,1.62.06,3.25-1.06,4.91-1.16,3.62-.24,7.26-.18,10.89-.21,8.56-.07,8.56-.06,8.55-8.38V183.48c0-3.8.37-7.63,0-11.4-.45-4.86,1.7-6.5,6.22-6.47,11.91.09,23.83,0,35.75,0,9.16,0,18.31,0,27.47.14,2,0,4.07.34,6.61.57V480.44c0,8.69,0,8.68,8.48,8.67,8.3,0,16.61.22,24.9-.08,4.55-.17,6,1.39,6,5.93-.13,47-.07,94.08-.08,141.11,0,7.55-.06,7.58,7.51,7.63,6.75,0,13.49.08,20.24,0,7.83-.06,7.88-.1,7.89-7.77V551.38q0-96.76.08-193.51v-6.12l1.49-1c3.67,4,7.35,8,11,12l102.22,112.16c12.38,13.53,12.52,13.41,12.52,31.84v98.57c0,13.13.16,26.26,0,39.39-.06,4,1,5.48,5.25,5.39,11.58-.25,23.18.18,34.75-.18,5.12-.16,7.27,1.09,6.83,6.55-.25,3.19.81,6.49,1.28,9.74Zm-792.61-420c0-8.51-.32-16.09.11-23.64.3-5.41-2.07-7.88-7.18-9-2.68,7.58-7.33,13.53-14.61,16.65A97,97,0,0,1,455.37,286c-3.16.75-3.23,2.64-3,5s-.94,6,3,6c12.52.19,25.07.06,37.86.06Zm-82.49-32.43v32.43c9.67,0,19.49-.27,29.28.12,4.54.18,5.08-2,5.31-5.51s-.31-5.07-4.41-5.81c-13-2.4-24.61-7.21-30.18-21.27Z" transform="translate(-1 0.04)" />
    <path class="cls-13" d="M1279.84,720.06c-2.58-.1-5.17-.28-7.75-.28H1V281.46H2.37V479.52c0,8.35,0,8.35,8.55,8.36H64.5V605.44c0,7,0,7,7.23,7,6.57,0,13.15-.16,19.71,0,3.68.12,4.79-1.33,4.74-4.87-.15-12.1-.06-24.21,0-36.31V251.68c0-12.5,0-12.74,12.26-12.81,27.33-.15,54.65,0,82-.11,3.88,0,5.07,1.24,5.05,5-.12,20.91,0,41.83,0,62.75q0,140.34-.15,280.67c0,4.76,1.45,6.41,6.21,6.33,11.58-.2,23.17-.07,34.76.1,4.55.07,5.74-1.87,5.69-6.31-.31-26.62-.24-53.25-.51-79.88-.06-6.27,5.1-5.27,8.33-6.4,7.31-2.54,12.51.5,13.63,8A190.35,190.35,0,0,1,266,534.23c.33,23.17.09,46.34.11,69.51,0,2.86.24,5.72.42,9.75,5.22-5,9-9.9,13.91-12.88,8.12-4.91,10.39-11.59,9.24-20.31a17.46,17.46,0,0,1,0-5.68c.42-2.11.95-4.63,2.37-6a10.59,10.59,0,0,0,3.51-8.63c-.39-19.75.36-39.51,7.28-58.24,2.93-7.93,7.76-15.26,12.36-22.46,11.2-17.54,23.46-34.35,41.44-45.62,15-9.4,30.48-18.06,45.85-26.86,2.84-1.62,4.3-3.18,4.27-6.72-.13-12.24,0-12.24-11.9-15.65-9.07-2.59-9.1-2.59-9.07-12.17.08-21.95.32-43.91.2-65.87,0-5.22,1.62-7.16,6.88-6.53,3,.36,6.08-.24,7.86-.34V267.86c-6.13-.82-11.09-1.24-15.94-2.19-5.28-1-9.54-4-10.27-9.59s2.92-9,7.35-11.5c11.54-6.41,23.18-8.64,35-.44a5.9,5.9,0,0,0,4.81.28c18.62-7.72,36.06-5.84,52.7,6.37a59.18,59.18,0,0,1,4.19-5.76c9.42-10.21,29.7-7.41,36.26,5,5.14,9.7.07,19.86-11.36,22.34-3.3.72-6.79.63-11.41,1v26.39h15.74c-1,7.51-1.75,14.09-2.65,20.66-2.25,16.55-4.56,33.09-6.83,49.63-.42,3.07-.3,6.3-1.27,9.17a7.37,7.37,0,0,1-4.3,4.12c-12.06,3.52-11.85,3.42-12.2,16-.15,5.29,1.19,7.42,6.69,9.21,24.61,8,48.27,18.6,67.19,36.61,22.88,21.78,37.8,48.31,41.59,80.31q2.24,18.79,4.82,37.55c.41,3,1.41,5.9,2.32,9.59l4-3.31c3.9,4.52,9.77,7.73,8.65,15.3-.17,1.17,1,2.94,2,3.81,6.74,5.59,13.61,11,20.47,16.48a43.75,43.75,0,0,0,3.82,2.33c.19-3.55.46-6.37.46-9.18,0-23.18.09-46.35,0-69.52,0-8.59,2.71-16.3,6.77-23.64a16.68,16.68,0,0,1,4-4.73c4-3.28,6.2-2.62,7.63,2.36a31.12,31.12,0,0,1,1.36,8.57q.12,75.74,0,151.49v6.54h24.24c0-14.31-.11-28.43,0-42.55.48-48.93.88-97.86,1.68-146.78.26-16,1.62-32.06,2.5-48.09,1.25-22.71,11.37-41.63,28.14-55.86C730,366.32,725.05,349.51,714,344c-12-6.05-15.62-19-8.82-30.89a7.54,7.54,0,0,1,3.15-3.27c9.58-3.79,19.28-7.25,28.85-11,3.89-1.54,8.68-2.68,11.13-5.62,14.75-17.65,27.68-36.6,37.43-57.5,2.68-5.75,3.73-12.24,6-18.2,1.36-3.57,3.7-6.74,5.45-10.17a9,9,0,0,0,1-3.88c.11-5.87.17-11.76,0-17.63s-3.93-9.87-8.87-11.69c-5.56-2.06-11.62-3-17.55-3.8-8.49-1.1-17.06-1.6-25.59-2.36l-.3-1.78c2.42-1.39,4.85-2.75,7.25-4.17,10.48-6.21,23-9.08,31.25-18.91a176.47,176.47,0,0,0,11.66-15.17c1.43-2.13,1.57-5.16,2.2-7.8.46-2-.81-5.31,2.85-4.62,1.13.21,2.47,3.23,2.48,5,.16,24.73.1,49.46.1,74.19,0,1.72.16,3.47,0,5.18-.46,4.41.58,7.14,5.44,8.91,2.84,1,5.37,4.78,6.6,7.87a23.49,23.49,0,0,1,1,10.72c-1.19,11.09,2.86,20.07,10.55,27.53a76.84,76.84,0,0,1,19,29.25c4,11.08,11.8,17.87,24,19.3,4.72.56,9.36,2.42,13.84,4.2,9.66,3.82,13.66,13.14,11,25.06-2.11,9.46-7.29,17-14.58,23.3-6.45,5.53-8.09,9.75-3.88,17.19,4.45,7.87,9.56,15.91,16.18,21.87A41.72,41.72,0,0,1,907,421.87c1.86,15.05,3.39,30.21,3.86,45.36,1.79,57.54,3.15,115.1,4.54,172.65.11,4.93,1.53,7.39,6.89,7,2.24-.18,4.56,1.13,6.86,1.22,1.62.06,3.25-1.06,4.91-1.16,3.62-.24,7.26-.18,10.89-.21,8.56-.07,8.56-.06,8.55-8.38V186.48c0-3.8.37-7.63,0-11.4-.45-4.86,1.7-6.5,6.22-6.47,11.91.09,23.83,0,35.75,0,9.16,0,18.31,0,27.47.14,2,0,4.07.34,6.61.57V483.44c0,8.69,0,8.68,8.48,8.67,8.3,0,16.61.22,24.9-.08,4.55-.17,6,1.39,6,5.93-.13,47-.07,94.08-.08,141.11,0,7.55-.06,7.58,7.51,7.63,6.75,0,13.49.08,20.24,0,7.83-.06,7.88-.1,7.89-7.77V554.38q0-96.76.08-193.51v-6.12l1.49-1c3.67,4,7.35,8,11,12l102.22,112.16c12.38,13.53,12.52,13.41,12.52,31.84v98.57c0,13.13.16,26.26,0,39.39-.06,4,1,5.48,5.25,5.39,11.58-.25,23.18.18,34.75-.18,5.12-.16,7.27,1.09,6.83,6.55-.25,3.19.81,6.49,1.28,9.74Zm-792.61-420c0-8.51-.32-16.09.11-23.64.3-5.41-2.07-7.88-7.18-9-2.68,7.58-7.33,13.53-14.61,16.65A97,97,0,0,1,449.37,289c-3.16.75-3.23,2.64-3,5s-.94,6,3,6c12.52.19,25.07.06,37.86.06Zm-82.49-32.43v32.43c9.67,0,19.49-.27,29.28.12,4.54.18,5.08-2,5.31-5.51s-.31-5.07-4.41-5.81c-13-2.4-24.61-7.21-30.18-21.27Z" transform="translate(-1 0.04)" />
    <rect class="cls-12" x="119.71" y="276.83" width="19.12" height="15.6" />
    <rect class="cls-3" x="152.37" y="276.83" width="19.12" height="15.6" />
    <rect class="cls-3" x="119.37" y="306.83" width="19.12" height="15.6" />
    <rect class="cls-12" x="153.04" y="306.83" width="19.12" height="15.6" />
    <rect class="cls-12" x="119.71" y="340.17" width="19.12" height="15.6" />
    <rect class="cls-3" x="152.37" y="340.17" width="19.12" height="15.6" />
    <rect class="cls-3" x="119.37" y="370.17" width="19.12" height="15.6" />
    <rect class="cls-12" x="153.04" y="370.17" width="19.12" height="15.6" />
    <rect class="cls-12" x="1141.82" y="518.99" width="19.12" height="15.6" />
    <rect class="cls-3" x="1174.49" y="518.99" width="19.12" height="15.6" />
    <rect class="cls-3" x="1141.49" y="548.99" width="19.12" height="15.6" />
    <rect class="cls-12" x="1175.16" y="548.99" width="19.12" height="15.6" />
    <rect class="cls-12" x="1141.82" y="582.32" width="19.12" height="15.6" />
    <rect class="cls-3" x="1174.49" y="582.32" width="19.12" height="15.6" />
    <rect class="cls-3" x="1141.49" y="612.32" width="19.12" height="15.6" />
    <rect class="cls-12" x="1175.16" y="612.32" width="19.12" height="15.6" />
    <rect class="cls-12" x="120.6" y="401.95" width="19.12" height="15.6" />
    <rect class="cls-3" x="153.26" y="401.95" width="19.12" height="15.6" />
    <rect class="cls-3" x="120.26" y="431.95" width="19.12" height="15.6" />
    <rect class="cls-12" x="153.93" y="431.95" width="19.12" height="15.6" />
    <rect class="cls-12" x="120.6" y="465.29" width="19.12" height="15.6" />
    <rect class="cls-3" x="153.26" y="465.29" width="19.12" height="15.6" />
    <rect class="cls-3" x="120.26" y="495.29" width="19.12" height="15.6" />
    
    //cloud1//
    <path class="cls-14" d="M329.31,230.19h-74c-12.8,0-23.22-10.71-23.22-23.86a23.54,23.54,0,0,1,20.79-23.74c2-16,15.36-28,31.07-28,17.27,0,31.33,14.44,31.33,32.2a32.22,32.22,0,0,1-.18,3.39,21.11,21.11,0,0,1,11.82-4.55l1.77-.12.73,1.66a15.55,15.55,0,0,0,14.17,9.43h3.49l.71,1.47a23,23,0,0,1,2.2,9.81c0,11.65-8.85,21.42-20.16,22.24l-.28.06Z" transform="translate(-1 0.04)">
    
    
    
    <animateTransform id="any"
                      attributeName="transform"
                      attributeType="XML"
                      type="translate"
                      dur="30s"
                      values="1000,0;-1000,0"
                      repeatCount="indefinite"/>
    
    </path>
        
          
    <path class="cls-15" d="M247.65,206.67a24.16,24.16,0,0,1,20-24.13h15.28a5,5,0,0,0,4.94-5.08h0a5,5,0,0,0-4.94-5.08H277a3,3,0,0,1-2.42-4.77,32.41,32.41,0,0,1,12.55-10.78,1.11,1.11,0,0,0-.35-2.1c-.93-.09-1.87-.13-2.81-.13-15.71,0-29,12-31.07,28a23.53,23.53,0,0,0-20.79,23.6,23.88,23.88,0,0,0,23.56,24h5.27a.76.76,0,0,0,.32-1.43A24.53,24.53,0,0,1,247.65,206.67Z" transform="translate(-1 0.04)">
        
        
        <animateTransform id="any"
                      attributeName="transform"
                      attributeType="XML"
                      type="translate"
                      dur="30s"
                      values="1000,0;-1000,0"
                      repeatCount="indefinite"/>
    </path>
        
    <!-- cloud2    -->
 
    <path class="cls-16" d="M717.5,108.39a30.89,30.89,0,1,1,30.15-37.61,20.26,20.26,0,1,1,10.48,37.61Z" transform="translate(-1 0.04)">
        <animateTransform id="any"
                      attributeName="transform"
                      attributeType="XML"
                      type="translate"
                      dur="35s"
                      values="800,0;-800,0"
                      repeatCount="indefinite"/>
    </path>
        
    <path class="cls-17" d="M710.51,77.5a31,31,0,0,1,.24-3.88h12.62a5.19,5.19,0,0,0,5.19-5.19h0a5.19,5.19,0,0,0-5.19-5.19h-3.62a3.11,3.11,0,0,1-2.44-5.05,30.92,30.92,0,0,1,10.86-8.6.59.59,0,0,0,0-1.08A30.85,30.85,0,0,0,686.61,78c.25,17,14.42,30.44,31.39,30.44h23.4A30.92,30.92,0,0,1,710.51,77.5Z" transform="translate(-1 0.04)">
        
        <animateTransform id="any"
                      attributeName="transform"
                      attributeType="XML"
                      type="translate"
                      dur="35s"
                      values="800,0;-800,0"
                      repeatCount="indefinite"/>
    </path>
       
    //cloud 3 and 4//
    
    <path class="cls-16" d="M208.19,84.22a26.14,26.14,0,1,1,25.5-31.88,17.16,17.16,0,1,1,8.82,31.88Z" transform="translate(-1 0.04)">
        
         <animateTransform id="any"
                      attributeName="transform"
                      attributeType="XML"
                      type="translate"
                      dur="35s"
                      values="1000,0;-1000,0"
                      repeatCount="indefinite"/>
    </path>
        
    <path class="cls-16" d="M393.53,152.34A26.14,26.14,0,1,1,419,120.46a17.16,17.16,0,1,1,8.82,31.88Z" transform="translate(-1 0.04)">
         <animateTransform id="any"
                      attributeName="transform"
                      attributeType="XML"
                      type="translate"
                      dur="35s"
                      values="1000,0;-1000,0"
                      repeatCount="indefinite"/>
    </path>
    
    <path class="cls-17" d="M217.47,84.22a1,1,0,0,0,.42-1.9,26.57,26.57,0,0,1-15.74-24.23c0-.38,0-.75,0-1.12a3.13,3.13,0,0,1,3.13-3h7.57a5.21,5.21,0,0,0,5.27-5,5.08,5.08,0,0,0-5.09-5.22A3.13,3.13,0,0,1,211,38.35a25.49,25.49,0,0,1,3.68-2.77,1.6,1.6,0,0,0-.43-2.92,25.58,25.58,0,0,0-6-.71,26.16,26.16,0,0,0-26.13,26.64c.27,14.31,12.26,25.63,26.57,25.63Z" transform="translate(-1 0.04)">
         <animateTransform id="any"
                      attributeName="transform"
                      attributeType="XML"
                      type="translate"
                      dur="35s"
                      values="1000,0;-1000,0"
                      repeatCount="indefinite"/>
    </path>
        
    <path class="cls-17" d="M408.4,152.85a26.18,26.18,0,0,1-25.56-20.68,5,5,0,0,1,4.87-6h7.74a5.5,5.5,0,0,0,5.56-5.28,5.37,5.37,0,0,0-5.38-5.48h-5.56a2.94,2.94,0,0,1-2.32-4.73,26.27,26.27,0,0,1,8.48-7.12,1.31,1.31,0,0,0-.37-2.44,26.12,26.12,0,0,0-31.54,26.07c.27,14.31,12.26,25.63,26.57,25.63Z" transform="translate(-1 0.04)">
         <animateTransform id="any"
                      attributeName="transform"
                      attributeType="XML"
                      type="translate"
                      dur="35s"
                      values="1000,0;-1000,0"
                      repeatCount="indefinite"/>
    </path>
      
    <rect class="cls-12" x="153.93" y="495.29" width="19.12" height="15.6" />
</svg>