<svg id="Layer_2" data-name="Layer 2" xmlns="http://www.w3.org/2000/svg" viewBox="0 0 1283.85 720.06"><defs><style>.cls-1{fill:#fa0;}.cls-2{fill:#ffb100;}.cls-3{fill:#ffb800;}.cls-4{fill:#ffbf00;}.cls-5{fill:#ffc500;}.cls-6{fill:#fc0;}.cls-7{fill:#ffd624;}.cls-8{fill:#ffe038;}.cls-9{fill:#ffeb49;}.cls-10{fill:#fff558;}.cls-11{fill:#ff6;}.cls-12{fill:#005cff;}.cls-13{fill:#21214f;}.cls-14{fill:#00a7d3;}</style></defs><title>bg5</title><rect class="cls-1" x="0.5" width="1280.86" height="696.54"/><path class="cls-2" d="M387.18,616.06c-87.5-19-178.84-28-268.42-16.89A525.05,525.05,0,0,0-1.88,628.25v69.83H673.61c-92.78-28.91-184.76-59.3-278.26-80.28C392.63,617.19,389.9,616.67,387.18,616.06Z" transform="translate(2.37 -1.54)"/><path class="cls-3" d="M1279,1.54H-1.88V628.25a525.25,525.25,0,0,1,120.64-29.17C208.34,588,299.68,597,387.18,616c2.72.61,5.45,1.22,8.17,1.74,93.5,20.9,185.48,51.37,278.26,80.28H1279Z" transform="translate(2.37 -1.54)"/><path class="cls-4" d="M381.1,507.4c2.56.7,5.12,1.48,7.6,2.18,157.07,45.71,311.17,116.23,475.12,153.76,139.45,31.86,279.79,25.42,415.16-8.88V1.54H-1.88V502.09a459.69,459.69,0,0,1,129-26.91C213,469.44,298.88,484.07,381.1,507.4Z" transform="translate(2.37 -1.54)"/><path class="cls-5" d="M-1.88,1.54V375.41a413.65,413.65,0,0,1,137.21-24.12c82.3-.7,162.67,19.76,239.6,47.45,2.41.87,4.73,1.74,7.13,2.61,147,54,292.75,127.21,450.22,167.26,149.46,38,301.24,29.95,446.62-11V1.54Z" transform="translate(2.37 -1.54)"/><path class="cls-6" d="M143.66,227.39c78.61,5.23,153.62,30.65,225.19,62.78,2.24.95,4.4,2,6.64,3,136.9,62.34,274.35,138,425.33,180.84C960,519.07,1123.75,509.49,1279,461.08V1.54H-1.88V248.11A358.22,358.22,0,0,1,143.66,227.39Z" transform="translate(2.37 -1.54)"/><path class="cls-7" d="M1279,1.54H-1.88V120.21C48,102,100.35,96.27,152,103.5c74.93,10.53,144.49,41.53,210.78,78,2.08,1.13,4.08,2.26,6.16,3.39,126.81,70.61,255.93,148.8,400.51,194.34,168.51,53.11,344.87,42.66,509.62-14.46V1.54Z" transform="translate(2.37 -1.54)"/><path class="cls-8" d="M362.29,76.68C479,155.65,599.8,236,737.9,284.51c167,58.68,345.27,52.93,510.66-4.62,10.24-3.57,20.33-7.31,30.5-11.23V1.54H228.76c44.83,18.55,87,44.06,127.84,71.39C358.52,74.15,360.36,75.46,362.29,76.68Z" transform="translate(2.37 -1.54)"/><path class="cls-9" d="M1279,1.54H396.79c94.54,74.7,194.93,143.23,309.65,188.24,153.54,60.25,320.21,65,476.31,18.37a740,740,0,0,0,96.31-36.31V1.54Z" transform="translate(2.37 -1.54)"/><path class="cls-10" d="M1116.87,136.32a649.21,649.21,0,0,0,111-38.14c17.38-7.74,34.43-16.36,51.16-25.68v-71H513.19C563.54,37.85,617,69.63,675,95.05,815,156.61,970.13,172.28,1116.87,136.32Z" transform="translate(2.37 -1.54)"/><path class="cls-11" d="M1051.07,64.58a555.6,555.6,0,0,0,173.55-63H645.84C772.08,63.36,914.49,89.48,1051.07,64.58Z" transform="translate(2.37 -1.54)"/><path class="cls-12" d="M1281.47,718.6c-2.58-.1-5.17-.28-7.75-.28H2.63V280H4V478.06c0,8.35,0,8.35,8.55,8.36H66.13v7.06q0,55.24,0,110.5c0,7,0,7,7.23,7,6.57,0,13.15-.16,19.71,0,3.68.12,4.79-1.33,4.74-4.87-.15-12.1-.06-24.21,0-36.31q0-159.8,0-319.58c0-12.5,0-12.74,12.26-12.81,27.33-.15,54.65,0,82-.11,3.88,0,5.07,1.24,5.05,5-.12,20.91,0,41.83,0,62.75q0,140.34-.15,280.67c0,4.76,1.45,6.41,6.21,6.33,11.58-.2,23.17-.07,34.76.1,4.55.07,5.74-1.87,5.69-6.31-.31-26.62-.24-53.25-.51-79.88-.06-6.27,5.1-5.27,8.33-6.4,7.31-2.54,12.51.5,13.63,8a191,191,0,0,1,2.53,25.21c.33,23.17.09,46.34.11,69.51,0,2.86.24,5.72.42,9.75,5.22-5,9-9.9,13.91-12.88,8.12-4.91,10.39-11.59,9.24-20.31a17.47,17.47,0,0,1,0-5.68c.42-2.11.95-4.63,2.37-6a10.57,10.57,0,0,0,3.51-8.63c-.39-19.75.36-39.51,7.28-58.24,2.93-7.93,7.76-15.26,12.36-22.46,11.2-17.54,23.46-34.35,41.44-45.62,15-9.4,30.48-18.06,45.85-26.86,2.84-1.62,4.3-3.18,4.27-6.72-.13-12.24,0-12.24-11.9-15.65-9.07-2.59-9.1-2.59-9.07-12.17.08-21.95.32-43.91.2-65.87,0-5.22,1.62-7.16,6.88-6.53,3,.36,6.08-.24,7.86-.34V266.4c-6.13-.82-11.09-1.24-15.94-2.19-5.28-1-9.54-4-10.27-9.59s2.92-9,7.35-11.5c11.54-6.41,23.18-8.64,35-.44a5.9,5.9,0,0,0,4.81.28c18.62-7.72,36.06-5.84,52.7,6.37a57.55,57.55,0,0,1,4.19-5.76c9.42-10.21,29.7-7.41,36.26,5,5.14,9.7.07,19.86-11.36,22.34-3.3.72-6.79.63-11.41,1V298.3h15.74c-1,7.51-1.75,14.09-2.65,20.66-2.25,16.55-4.56,33.09-6.83,49.63-.42,3.07-.3,6.3-1.27,9.17a7.37,7.37,0,0,1-4.3,4.12c-12.06,3.52-11.85,3.42-12.2,16-.15,5.29,1.19,7.42,6.69,9.21,24.61,8,48.27,18.6,67.19,36.61,22.88,21.78,37.8,48.31,41.59,80.31q2.24,18.79,4.82,37.55c.41,3,1.41,5.9,2.32,9.59l3.95-3.31c3.9,4.52,9.77,7.73,8.65,15.3-.17,1.17,1,2.94,2,3.81,6.74,5.59,13.61,11,20.47,16.48a43.22,43.22,0,0,0,3.82,2.33c.19-3.55.46-6.37.46-9.18,0-23.18.09-46.35,0-69.52,0-8.59,2.71-16.3,6.77-23.64a16.75,16.75,0,0,1,4-4.73c4-3.28,6.2-2.62,7.63,2.36a31.24,31.24,0,0,1,1.36,8.57q.12,75.74,0,151.49v6.54h24.24c0-14.31-.11-28.43,0-42.55.48-48.93.88-97.86,1.68-146.78.26-16,1.62-32.06,2.5-48.09,1.25-22.71,11.37-41.63,28.14-55.86,11.21-9.51,6.24-26.32-4.78-31.86-12-6.05-15.62-19-8.82-30.89a7.5,7.5,0,0,1,3.15-3.27c9.58-3.79,19.28-7.25,28.85-11,3.89-1.54,8.68-2.68,11.13-5.62,14.75-17.65,27.68-36.6,37.43-57.5,2.68-5.75,3.73-12.24,6-18.2,1.36-3.57,3.7-6.74,5.45-10.17a9.12,9.12,0,0,0,1-3.88c.11-5.87.17-11.76,0-17.63s-3.93-9.87-8.87-11.69c-5.56-2.06-11.62-3-17.55-3.8-8.49-1.1-17.06-1.6-25.59-2.36l-.3-1.78c2.42-1.39,4.85-2.75,7.25-4.17,10.48-6.21,23-9.08,31.25-18.91a178,178,0,0,0,11.66-15.17c1.43-2.13,1.57-5.16,2.2-7.8.46-2-.81-5.31,2.85-4.62,1.13.21,2.47,3.23,2.48,5,.16,24.73.1,49.46.1,74.19,0,1.72.16,3.47,0,5.18-.46,4.41.58,7.14,5.44,8.91,2.84,1,5.37,4.78,6.6,7.87a23.43,23.43,0,0,1,1,10.72c-1.19,11.09,2.86,20.07,10.55,27.53a76.81,76.81,0,0,1,19,29.25c4,11.08,11.8,17.87,24,19.3,4.72.56,9.36,2.42,13.84,4.2,9.66,3.82,13.66,13.14,11,25.06-2.11,9.46-7.29,17-14.58,23.3-6.45,5.53-8.09,9.75-3.88,17.19,4.45,7.87,9.56,15.91,16.18,21.87a41.74,41.74,0,0,1,14.14,26.79c1.86,15.05,3.39,30.21,3.86,45.36,1.79,57.54,3.15,115.1,4.54,172.65.11,4.93,1.53,7.39,6.89,7,2.24-.18,4.56,1.13,6.86,1.22,1.62.06,3.25-1.06,4.91-1.16,3.62-.24,7.26-.18,10.89-.21,8.56-.07,8.56-.06,8.55-8.38q0-50.58,0-101.16,0-175.35,0-350.71c0-3.8.37-7.63,0-11.4-.45-4.86,1.7-6.5,6.22-6.47,11.91.09,23.83,0,35.75,0,9.16,0,18.31,0,27.47.14,2,0,4.07.34,6.61.57v6.47q0,153.83,0,307.65c0,8.69,0,8.68,8.48,8.67,8.3,0,16.61.22,24.9-.08,4.55-.17,6,1.39,6,5.93-.13,47-.07,94.08-.08,141.11,0,7.55-.06,7.58,7.51,7.63,6.75.05,13.49.08,20.24,0,7.83-.06,7.88-.1,7.89-7.77q0-42.27,0-84.55,0-96.76.08-193.51v-6.12l1.49-1c3.67,4,7.35,8,11,12q51.11,56.08,102.22,112.16c12.38,13.53,12.52,13.41,12.52,31.84q0,49.29,0,98.57c0,13.13.16,26.26,0,39.39-.06,4,1,5.48,5.25,5.39,11.58-.25,23.18.18,34.75-.18,5.12-.16,7.27,1.09,6.83,6.55-.25,3.19.81,6.49,1.28,9.74Zm-792.61-420c0-8.51-.32-16.09.11-23.64.3-5.41-2.07-7.88-7.18-9-2.68,7.58-7.33,13.53-14.61,16.65A97.06,97.06,0,0,1,451,287.5c-3.16.75-3.23,2.64-3,5s-.94,6,3,6C463.52,298.69,476.07,298.56,488.86,298.56Zm-82.49-32.43v32.43c9.67,0,19.49-.27,29.28.12,4.54.18,5.08-2,5.31-5.51s-.31-5.07-4.41-5.81C423.52,285,411.94,280.19,406.37,266.13Z" transform="translate(2.37 -1.54)"/><path class="cls-13" d="M1276.47,721.6c-2.58-.1-5.17-.28-7.75-.28H-2.37V283H-1V481.06c0,8.35,0,8.35,8.55,8.36H61.13v7.06q0,55.24,0,110.5c0,7,0,7,7.23,7,6.57,0,13.15-.16,19.71,0,3.68.12,4.79-1.33,4.74-4.87-.15-12.1-.06-24.21,0-36.31q0-159.8,0-319.58c0-12.5,0-12.74,12.26-12.81,27.33-.15,54.65,0,82-.11,3.88,0,5.07,1.24,5.05,5-.12,20.91,0,41.83,0,62.75q0,140.34-.15,280.67c0,4.76,1.45,6.41,6.21,6.33,11.58-.2,23.17-.07,34.76.1,4.55.07,5.74-1.87,5.69-6.31-.31-26.62-.24-53.25-.51-79.88-.06-6.27,5.1-5.27,8.33-6.4,7.31-2.54,12.51.5,13.63,8a191,191,0,0,1,2.53,25.21c.33,23.17.09,46.34.11,69.51,0,2.86.24,5.72.42,9.75,5.22-5,9-9.9,13.91-12.88,8.12-4.91,10.39-11.59,9.24-20.31a17.47,17.47,0,0,1,0-5.68c.42-2.11.95-4.63,2.37-6a10.57,10.57,0,0,0,3.51-8.63c-.39-19.75.36-39.51,7.28-58.24,2.93-7.93,7.76-15.26,12.36-22.46,11.2-17.54,23.46-34.35,41.44-45.62,15-9.4,30.48-18.06,45.85-26.86,2.84-1.62,4.3-3.18,4.27-6.72-.13-12.24,0-12.24-11.9-15.65-9.07-2.59-9.1-2.59-9.07-12.17.08-21.95.32-43.91.2-65.87,0-5.22,1.62-7.16,6.88-6.53,3,.36,6.08-.24,7.86-.34V269.4c-6.13-.82-11.09-1.24-15.94-2.19-5.28-1-9.54-4-10.27-9.59s2.92-9,7.35-11.5c11.54-6.41,23.18-8.64,35-.44a5.9,5.9,0,0,0,4.81.28c18.62-7.72,36.06-5.84,52.7,6.37a57.55,57.55,0,0,1,4.19-5.76c9.42-10.21,29.7-7.41,36.26,5,5.14,9.7.07,19.86-11.36,22.34-3.3.72-6.79.63-11.41,1V301.3h15.74c-1,7.51-1.75,14.09-2.65,20.66-2.25,16.55-4.56,33.09-6.83,49.63-.42,3.07-.3,6.3-1.27,9.17a7.37,7.37,0,0,1-4.3,4.12c-12.06,3.52-11.85,3.42-12.2,16-.15,5.29,1.19,7.42,6.69,9.21,24.61,8,48.27,18.6,67.19,36.61,22.88,21.78,37.8,48.31,41.59,80.31q2.24,18.79,4.82,37.55c.41,3,1.41,5.9,2.32,9.59l3.95-3.31c3.9,4.52,9.77,7.73,8.65,15.3-.17,1.17,1,2.94,2,3.81,6.74,5.59,13.61,11,20.47,16.48a43.22,43.22,0,0,0,3.82,2.33c.19-3.55.46-6.37.46-9.18,0-23.18.09-46.35,0-69.52,0-8.59,2.71-16.3,6.77-23.64a16.75,16.75,0,0,1,4-4.73c4-3.28,6.2-2.62,7.63,2.36a31.24,31.24,0,0,1,1.36,8.57q.12,75.74,0,151.49v6.54h24.24c0-14.31-.11-28.43,0-42.55.48-48.93.88-97.86,1.68-146.78.26-16,1.62-32.06,2.5-48.09,1.25-22.71,11.37-41.63,28.14-55.86,11.21-9.51,6.24-26.32-4.78-31.86-12-6.05-15.62-19-8.82-30.89a7.5,7.5,0,0,1,3.15-3.27c9.58-3.79,19.28-7.25,28.85-11,3.89-1.54,8.68-2.68,11.13-5.62,14.75-17.65,27.68-36.6,37.43-57.5,2.68-5.75,3.73-12.24,6-18.2,1.36-3.57,3.7-6.74,5.45-10.17a9.12,9.12,0,0,0,1-3.88c.11-5.87.17-11.76,0-17.63s-3.93-9.87-8.87-11.69c-5.56-2.06-11.62-3-17.55-3.8-8.49-1.1-17.06-1.6-25.59-2.36l-.3-1.78c2.42-1.39,4.85-2.75,7.25-4.17,10.48-6.21,23-9.08,31.25-18.91a178,178,0,0,0,11.66-15.17c1.43-2.13,1.57-5.16,2.2-7.8.46-2-.81-5.31,2.85-4.62,1.13.21,2.47,3.23,2.48,5,.16,24.73.1,49.46.1,74.19,0,1.72.16,3.47,0,5.18-.46,4.41.58,7.14,5.44,8.91,2.84,1,5.37,4.78,6.6,7.87a23.43,23.43,0,0,1,1,10.72c-1.19,11.09,2.86,20.07,10.55,27.53a76.81,76.81,0,0,1,19,29.25c4,11.08,11.8,17.87,24,19.3,4.72.56,9.36,2.42,13.84,4.2,9.66,3.82,13.66,13.14,11,25.06-2.11,9.46-7.29,17-14.58,23.3-6.45,5.53-8.09,9.75-3.88,17.19,4.45,7.87,9.56,15.91,16.18,21.87a41.74,41.74,0,0,1,14.14,26.79c1.86,15.05,3.39,30.21,3.86,45.36,1.79,57.54,3.15,115.1,4.54,172.65.11,4.93,1.53,7.39,6.89,7,2.24-.18,4.56,1.13,6.86,1.22,1.62.06,3.25-1.06,4.91-1.16,3.62-.24,7.26-.18,10.89-.21,8.56-.07,8.56-.06,8.55-8.38q0-50.58,0-101.16,0-175.35,0-350.71c0-3.8.37-7.63,0-11.4-.45-4.86,1.7-6.5,6.22-6.47,11.91.09,23.83,0,35.75,0,9.16,0,18.31,0,27.47.14,2,0,4.07.34,6.61.57v6.47q0,153.83,0,307.65c0,8.69,0,8.68,8.48,8.67,8.3,0,16.61.22,24.9-.08,4.55-.17,6,1.39,6,5.93-.13,47-.07,94.08-.08,141.11,0,7.55-.06,7.58,7.51,7.63,6.75.05,13.49.08,20.24,0,7.83-.06,7.88-.1,7.89-7.77q0-42.27,0-84.55,0-96.76.08-193.51v-6.12l1.49-1c3.67,4,7.35,8,11,12q51.11,56.08,102.22,112.16c12.38,13.53,12.52,13.41,12.52,31.84q0,49.29,0,98.57c0,13.13.16,26.26,0,39.39-.06,4,1,5.48,5.25,5.39,11.58-.25,23.18.18,34.75-.18,5.12-.16,7.27,1.09,6.83,6.55-.25,3.19.81,6.49,1.28,9.74Zm-792.61-420c0-8.51-.32-16.09.11-23.64.3-5.41-2.07-7.88-7.18-9-2.68,7.58-7.33,13.53-14.61,16.65A97.06,97.06,0,0,1,446,290.5c-3.16.75-3.23,2.64-3,5s-.94,6,3,6C458.52,301.69,471.07,301.56,483.86,301.56Zm-82.49-32.43v32.43c9.67,0,19.49-.27,29.28.12,4.54.18,5.08-2,5.31-5.51s-.31-5.07-4.41-5.81C418.52,288,406.94,283.19,401.37,269.13Z" transform="translate(2.37 -1.54)"/><rect class="cls-14" x="118.71" y="276.79" width="19.12" height="15.6"/><rect class="cls-14" x="151.37" y="276.79" width="19.12" height="15.6"/><rect class="cls-14" x="118.37" y="306.79" width="19.12" height="15.6"/><rect class="cls-14" x="152.04" y="306.79" width="19.12" height="15.6"/><rect class="cls-14" x="118.71" y="340.13" width="19.12" height="15.6"/><rect class="cls-14" x="151.37" y="340.13" width="19.12" height="15.6"/><rect class="cls-14" x="118.37" y="370.13" width="19.12" height="15.6"/><rect class="cls-14" x="152.04" y="370.13" width="19.12" height="15.6"/><rect class="cls-14" x="1140.82" y="518.95" width="19.12" height="15.6"/><rect class="cls-14" x="1173.49" y="518.95" width="19.12" height="15.6"/><rect class="cls-14" x="1140.49" y="548.95" width="19.12" height="15.6"/><rect class="cls-14" x="1174.16" y="548.95" width="19.12" height="15.6"/><rect class="cls-14" x="1140.82" y="582.28" width="19.12" height="15.6"/><rect class="cls-14" x="1173.49" y="582.28" width="19.12" height="15.6"/><rect class="cls-14" x="1140.49" y="612.28" width="19.12" height="15.6"/><rect class="cls-14" x="1174.16" y="612.28" width="19.12" height="15.6"/><rect class="cls-14" x="119.6" y="401.91" width="19.12" height="15.6"/><rect class="cls-14" x="152.26" y="401.91" width="19.12" height="15.6"/><rect class="cls-14" x="119.26" y="431.91" width="19.12" height="15.6"/><rect class="cls-14" x="152.93" y="431.91" width="19.12" height="15.6"/><rect class="cls-14" x="119.6" y="465.25" width="19.12" height="15.6"/><rect class="cls-14" x="152.26" y="465.25" width="19.12" height="15.6"/><rect class="cls-14" x="119.26" y="495.25" width="19.12" height="15.6"/><rect class="cls-14" x="152.93" y="495.25" width="19.12" height="15.6"/></svg>