<?xml version="1.0" encoding="utf-8"?>
<!-- Generator: Adobe Illustrator 22.1.0, SVG Export Plug-In . SVG Version: 6.00 Build 0)  -->
<svg version="1.1" id="Layer_1" xmlns="http://www.w3.org/2000/svg" xmlns:xlink="http://www.w3.org/1999/xlink" x="0px" y="0px"
	 viewBox="0 0 4000 800" style="enable-background:new 0 0 4000 800;" xml:space="preserve">
<style type="text/css">
	.st0{fill:#FFFFFF;}
	.st1{fill:#F8F4F5;}
	.st2{fill:#F5F7F7;}
</style>
<path class="st0" d="M1180.1,132.7l58.9-24.1c0.9-0.4,2-0.5,3-0.4c1,0.1,2,0.4,2.8,1c0.8,0.6,1.5,1.3,2,2.2c0.5,0.9,0.7,1.9,0.7,2.9
	v481.7c0,1.6-0.6,3.2-1.8,4.4c-1.2,1.2-2.7,1.8-4.4,1.8h-62.7c-0.8,0-1.6-0.2-2.4-0.5c-0.7-0.3-1.4-0.8-2-1.3c-0.6-0.6-1-1.3-1.3-2
	c-0.3-0.7-0.5-1.5-0.5-2.4V144.1c0-2.4,0.7-4.8,2.1-6.9C1175.9,135.2,1177.9,133.6,1180.1,132.7z M782.2,428.9
	c0-103.3,78.5-182.3,183.4-182.3c65.9,0,123.3,33,152.1,84.1c0.8,1.4,1,3.1,0.5,4.6c-0.4,1.5-1.5,2.9-2.9,3.6l-53.8,31.2
	c-0.7,0.4-1.5,0.7-2.3,0.8c-0.8,0.1-1.6,0.1-2.4-0.1c-0.8-0.2-1.5-0.6-2.2-1c-0.6-0.5-1.2-1.1-1.6-1.8
	c-16.4-29.4-48.9-47.9-88.3-47.9c-61.2,0-107.7,46.4-107.7,108.8c0,62.4,46.5,108.8,107.7,108.8c39.4,0,71.9-19.2,89.5-48.2
	c0.9-1.4,2.2-2.3,3.8-2.7c1.6-0.4,3.2-0.1,4.7,0.7l53.7,30.6c0.7,0.4,1.3,0.9,1.8,1.6c0.5,0.6,0.9,1.4,1.1,2.1
	c0.2,0.8,0.3,1.6,0.2,2.4c-0.1,0.8-0.4,1.6-0.8,2.3c-30,51.7-87.5,84.8-153.4,84.8C860.7,611.2,782.2,531.5,782.2,428.9z
	 M1684.7,595.9V261.8c0-1.6-0.6-3.2-1.8-4.4c-1.2-1.2-2.7-1.8-4.4-1.8h-62.7c-1.6,0-3.2,0.7-4.4,1.8c-1.2,1.2-1.8,2.7-1.8,4.4v43
	c-26.4-36-67.4-58.2-121.6-58.2c-94.5,0-173.1,79-173.1,182.3c0,102.6,78.5,182.3,173.1,182.3c54.1,0,95.3-22.2,121.6-58.9v43.6
	c0,1.6,0.7,3.2,1.8,4.4c1.2,1.2,2.7,1.8,4.4,1.8h62.7c1.6,0,3.2-0.7,4.4-1.8C1684,599.1,1684.7,597.5,1684.7,595.9z M1499.9,318
	c62.5,0,109.8,46.4,109.8,110.9h0c0,64.4-47.4,110.9-109.8,110.9c-62.4,0-109.8-46.4-109.8-110.9C1390,364.4,1437.3,318,1499.9,318z
	 M1948.1,255.7V324c0,0.8-0.1,1.6-0.4,2.4c-0.3,0.8-0.8,1.4-1.3,2c-0.6,0.6-1.3,1-2,1.3c-0.8,0.3-1.6,0.5-2.4,0.5
	c-47.9-1.2-100.8,22.9-100.8,97.2v168.3c0,1.6-0.7,3.2-1.8,4.4s-2.7,1.8-4.4,1.8h-62.7c-0.8,0-1.6-0.2-2.4-0.5
	c-0.7-0.3-1.4-0.8-2-1.3c-0.6-0.6-1-1.3-1.3-2c-0.3-0.7-0.5-1.6-0.5-2.4v-334c0-0.8,0.1-1.6,0.5-2.4c0.3-0.7,0.8-1.4,1.3-2
	c0.6-0.6,1.3-1,2-1.3c0.7-0.3,1.6-0.5,2.4-0.5h62.8c1.6,0,3.2,0.7,4.4,1.8c1.2,1.2,1.8,2.7,1.8,4.4v52.1
	c19.8-44.9,59.2-62.7,100.7-64.3c0.8,0,1.6,0.1,2.4,0.4c0.8,0.3,1.4,0.8,2,1.3c0.6,0.6,1,1.3,1.4,2
	C1948,254.1,1948.2,254.9,1948.1,255.7z M2016.4,122.9c-9,8.7-14.2,20.5-14.5,33c-0.2,6.4,0.9,12.8,3.3,18.7c2.3,6,5.8,11.4,10.3,16
	c4.5,4.6,9.8,8.2,15.7,10.7c5.9,2.5,12.3,3.8,18.7,3.8c6.4,0,12.8-1.3,18.7-3.8c5.9-2.5,11.3-6.1,15.7-10.7c4.5-4.6,8-10,10.3-16
	s3.4-12.3,3.3-18.7c-0.4-12.5-5.6-24.3-14.5-33s-21-13.5-33.4-13.5C2037.4,109.4,2025.4,114.2,2016.4,122.9z M2081.2,255.5h-62.7
	c-0.8,0-1.6,0.2-2.4,0.5c-0.8,0.3-1.4,0.8-2,1.4c-0.6,0.6-1,1.3-1.3,2c-0.3,0.8-0.4,1.6-0.4,2.4v334.1c0,1.6,0.6,3.2,1.8,4.4
	c1.2,1.2,2.7,1.8,4.4,1.8h62.7c1.6,0,3.2-0.6,4.4-1.8c1.2-1.2,1.8-2.7,1.8-4.4V261.7c0-1.6-0.7-3.2-1.8-4.4
	C2084.4,256.2,2082.9,255.5,2081.2,255.5z M2429,504.4c0,69.3-60.4,106.7-135.5,106.7c-67.1,0-116-29.1-139.3-76
	c-0.7-1.4-0.8-3-0.3-4.5s1.5-2.7,2.8-3.5l53.6-31c0.7-0.4,1.6-0.7,2.4-0.8c0.8-0.1,1.7,0,2.5,0.2c0.8,0.3,1.6,0.7,2.2,1.2
	c0.6,0.6,1.2,1.2,1.5,2c12.5,27.4,39,43.6,74.6,43.6c33.4,0,59.1-11.2,59.1-38.8c0-25.5-32-34.5-69.5-45.1
	c-53.2-15-117.5-33.2-117.5-106c0-65.1,56.3-106,127.2-106c54.7,0,100.4,24.2,125.5,66.6c0.4,0.7,0.7,1.5,0.8,2.3
	c0.1,0.8,0,1.6-0.2,2.4c-0.2,0.8-0.6,1.5-1.1,2.2c-0.5,0.6-1.1,1.2-1.9,1.6l-52.2,29.2c-0.7,0.4-1.4,0.7-2.2,0.8
	c-0.8,0.1-1.6,0.1-2.4-0.1c-0.8-0.2-1.5-0.6-2.1-1c-0.6-0.5-1.2-1.1-1.6-1.8c-13.1-23.3-36-34.2-62.6-34.2
	c-26.6,0-50.7,11.8-50.7,36.7c0,26,31.8,34.8,69.1,45.2C2364.4,411.2,2429,429.1,2429,504.4z M2494.7,129.3
	c-5.3,7.9-8.1,17.1-8.1,26.5c0,12.7,5.1,24.8,14.1,33.8c9,9,21.2,14,33.9,14c9.5,0,18.7-2.8,26.6-8.1c7.9-5.3,14-12.7,17.7-21.4
	c3.6-8.7,4.6-18.3,2.7-27.6c-1.8-9.3-6.4-17.8-13.1-24.5c-6.7-6.7-15.2-11.2-24.5-13.1c-9.3-1.8-18.9-0.9-27.7,2.7
	C2507.5,115.3,2500,121.4,2494.7,129.3z M2570.3,257.3c-1.2-1.2-2.7-1.8-4.4-1.8h-62.7c-0.8,0-1.6,0.2-2.4,0.5
	c-0.8,0.3-1.4,0.8-2,1.4c-0.6,0.6-1,1.3-1.3,2c-0.3,0.8-0.4,1.6-0.4,2.4v334.1c0,0.8,0.1,1.6,0.5,2.4c0.3,0.7,0.8,1.4,1.3,2
	c0.6,0.6,1.3,1,2,1.3c0.7,0.3,1.6,0.5,2.4,0.5h62.7c1.6,0,3.2-0.6,4.4-1.8c1.2-1.2,1.8-2.7,1.8-4.4V261.7
	C2572.1,260.1,2571.4,258.5,2570.3,257.3z M2999.3,255.5c1.6,0,3.2,0.7,4.4,1.8c1.1,1.2,1.8,2.7,1.8,4.4v324.4
	c0,111.6-87.6,163.6-178.6,163.6c-74,0-131.7-26.6-161.8-78.5c-0.8-1.4-1-3.1-0.6-4.7c0.4-1.6,1.5-2.9,2.9-3.7l53.9-31.2
	c0.7-0.4,1.5-0.7,2.3-0.8c0.8-0.1,1.6-0.1,2.4,0.1c0.8,0.2,1.5,0.6,2.1,1.1c0.6,0.5,1.2,1.1,1.6,1.8c15.6,27.3,41.8,48.1,98.5,48.1
	c64.6,0,103.6-35.3,103.6-95.6V544c-26.3,37.4-67.5,60.3-120.9,60.3c-98,0-175.1-79.7-175.1-178.8c0-99.1,77.2-178.8,175.1-178.8
	c53.5,0,94.5,22.9,120.9,60.3v-45.2c0-1.6,0.6-3.2,1.8-4.4c1.2-1.2,2.8-1.8,4.4-1.8L2999.3,255.5z M2931.7,425.3
	c0-62.4-47.3-108.8-110.5-108.8c-63.2,0-110.5,46.4-110.5,108.8c0,62.4,47.3,108.8,110.5,108.8c63.2,0,110.5-46.3,110.5-108.7
	L2931.7,425.3z M3403.1,595.9V389.4c0-90.1-55.6-142.7-133.5-142.5c-47.3,0-84.8,17.3-107.7,53.3V114.4c0-1-0.3-2-0.7-2.9
	s-1.1-1.7-2-2.2c-0.9-0.6-1.8-0.9-2.8-1c-1-0.1-2,0.1-3,0.4l-58.9,24.1c-2.2,0.9-4.1,2.5-5.4,4.5s-2.1,4.3-2.1,6.7v451.8
	c0,0.8,0.1,1.6,0.5,2.4c0.3,0.7,0.7,1.4,1.3,2c0.6,0.6,1.2,1,2,1.3s1.6,0.5,2.4,0.5h62.7c1.6,0,3.2-0.6,4.4-1.8
	c1.2-1.2,1.8-2.7,1.8-4.4V416.3c0-70.7,38.9-99.8,88.3-99.8c47.3,0,77.8,27.7,77.8,80.4v199c0,0.8,0.2,1.6,0.5,2.4
	c0.3,0.7,0.8,1.4,1.3,2c0.6,0.6,1.3,1,2,1.3c0.7,0.3,1.6,0.5,2.4,0.5h62.7c1.7,0,3.2-0.6,4.4-1.8
	C3402.4,599.1,3403.1,597.5,3403.1,595.9z M3587.7,327.7V494c0,42.6,27,43.6,79.7,41.1c0.8,0,1.7,0.1,2.5,0.4
	c0.8,0.3,1.5,0.7,2.1,1.3c0.6,0.6,1.1,1.3,1.4,2c0.3,0.8,0.5,1.6,0.5,2.4v55.3c0,1.5-0.6,3-1.6,4.1c-1,1.1-2.4,1.9-3.9,2
	c-111.3,12.2-155.7-20.1-155.7-108.8V327.7h-57.7c-0.8,0-1.6-0.2-2.4-0.5c-0.7-0.3-1.4-0.8-2-1.3c-0.6-0.6-1-1.2-1.3-2
	c-0.3-0.7-0.5-1.5-0.5-2.4v-59.8c0-1.6,0.6-3.2,1.8-4.4c1.1-1.2,2.7-1.8,4.4-1.8h57.7v-63.6c0-2.4,0.7-4.7,2.1-6.7
	c1.3-2,3.2-3.6,5.5-4.5l58.9-24.2c1-0.4,2-0.5,3-0.4c1,0.1,2,0.4,2.8,1c0.9,0.6,1.6,1.3,2,2.2c0.5,0.9,0.7,1.9,0.7,2.9v93.5h80
	c1.6,0,3.2,0.7,4.4,1.8c1.2,1.2,1.8,2.7,1.8,4.4v59.8c0,0.8-0.2,1.6-0.5,2.4c-0.3,0.7-0.8,1.4-1.4,2c-0.6,0.6-1.3,1-2,1.3
	c-0.7,0.3-1.6,0.5-2.4,0.5L3587.7,327.7z M3854.5,611.2c75.1,0,135.5-37.4,135.5-106.7c0-75.3-64.6-93.2-117.9-108
	c-37.3-10.4-69.1-19.2-69.1-45.2c0-24.9,23.6-36.7,50.8-36.7c26.5,0,49.5,10.8,62.6,34.2c0.8,1.4,2.1,2.4,3.7,2.8
	c1.6,0.4,3.2,0.2,4.6-0.6l52.2-29.2c0.7-0.4,1.4-0.9,1.9-1.6c0.5-0.6,0.9-1.4,1.1-2.2c0.2-0.8,0.3-1.6,0.2-2.4
	c-0.1-0.8-0.3-1.6-0.7-2.3c-25.1-42.4-70.9-66.6-125.5-66.6c-70.9,0-127.2,40.9-127.2,106c0,72.8,64.3,90.9,117.5,106
	c37.5,10.6,69.5,19.6,69.5,45.1c0,27.6-25.7,38.8-59.1,38.8c-35.6,0-62.2-16.2-74.6-43.6c-0.3-0.8-0.9-1.5-1.5-2
	c-0.6-0.6-1.4-1-2.2-1.2c-0.8-0.3-1.7-0.3-2.5-0.2c-0.8,0.1-1.7,0.4-2.4,0.8l-53.6,31c-1.3,0.8-2.4,2-2.8,3.5
	c-0.5,1.5-0.4,3.1,0.3,4.5C3738.4,582.1,3787.4,611.2,3854.5,611.2z"/>
<path class="st1" d="M341.7,366.2h249.8c0.5,0,1-0.1,1.5-0.3c0.5-0.2,0.9-0.5,1.2-0.9c0.3-0.4,0.6-0.8,0.7-1.3
	c0.1-0.5,0.2-1,0.1-1.5c-8.7-64.3-38.2-123.9-83.8-169.8c-45.7-45.9-105-75.5-169-84.2c-0.5-0.1-1,0-1.5,0.1c-0.5,0.1-1,0.4-1.3,0.7
	c-0.4,0.3-0.7,0.8-0.9,1.2c-0.2,0.5-0.3,1-0.3,1.5v250.9c0,1,0.4,1.9,1.1,2.5C339.8,365.9,340.7,366.2,341.7,366.2z"/>
<path class="st2" d="M338.1,441.6v250.9c0,0.5,0.1,1,0.3,1.5s0.5,0.9,0.9,1.2c0.4,0.3,0.8,0.6,1.3,0.7c0.5,0.1,1,0.2,1.5,0.1
	c64-8.8,123.4-38.4,169-84.2c45.7-45.9,75.1-105.5,83.8-169.8c0.1-0.5,0-1-0.1-1.5c-0.1-0.5-0.4-1-0.7-1.3c-0.3-0.4-0.8-0.7-1.2-0.9
	c-0.5-0.2-1-0.3-1.5-0.3H341.7c-0.9,0-1.9,0.4-2.5,1.1C338.5,439.7,338.1,440.6,338.1,441.6z"/>
<path class="st0" d="M266.7,111.7c0-0.5-0.1-1-0.3-1.5c-0.2-0.5-0.5-0.9-0.9-1.2c-0.4-0.3-0.8-0.6-1.3-0.7c-0.5-0.2-1-0.2-1.5-0.1
	c-70.8,9.6-135.7,44.7-182.8,98.8S7,330.3,7,402.1c0,71.8,25.9,141.1,72.9,195.2c47,54.1,111.9,89.2,182.8,98.8c0.5,0.1,1,0,1.5-0.1
	c0.5-0.2,0.9-0.4,1.3-0.7c0.4-0.3,0.7-0.8,0.9-1.2c0.2-0.5,0.3-1,0.3-1.5V111.7z"/>
</svg>
