<?xml version="1.0" encoding="utf-8"?>
<!-- Generator: Adobe Illustrator 23.0.0, SVG Export Plug-In . SVG Version: 6.00 Build 0)  -->
<svg version="1.1" id="Layer_1" xmlns="http://www.w3.org/2000/svg" xmlns:xlink="http://www.w3.org/1999/xlink" x="0px" y="0px"
	 viewBox="0 0 666 162" style="enable-background:new 0 0 666 162;" xml:space="preserve">
<style type="text/css">
	.st0{fill:#FFFFFF;}
</style>
<g>
	<path class="st0" d="M5.4,119.1l23.8-18.2C41.9,117.4,55.3,125,70.3,125c14.9,0,27.9-7.5,40-23.9l24.1,17.8
		C117,142.5,95.3,155,70.3,155C45.3,155,23.4,142.6,5.4,119.1z"/>
	<path class="st0" d="M70.2,39.8L27.8,76.4L8.2,53.6L70.3,0.2l61.6,53.5l-19.7,22.6L70.2,39.8z"/>
	<path class="st0" d="M214.7,132.5c-14.5,0-26.5-4.7-36.3-14.1c-9.8-9.5-14.6-21.7-14.6-36.6c0-15,4.9-27.3,14.7-37
		c9.9-9.8,22-14.6,36.3-14.6c17.7,0,33.4,7.6,42.5,19.6l-16,16.8c-7.6-8.2-15.9-12.3-24.9-12.3c-7.6,0-13.9,2.5-19.2,7.8
		c-5.1,5.2-7.6,11.8-7.6,19.7c0,7.6,2.5,14.1,7.6,19.3c5.2,5.1,11.5,7.6,19,7.6c9.8,0,18.4-4.3,25.5-12.7l16.6,15.9
		c-4.6,6-10.7,11-18.4,14.9C232.4,130.6,224,132.5,214.7,132.5L214.7,132.5z M286.5,28.8V131H263V28.8
		C263,28.8,286.5,28.8,286.5,28.8z M308.9,50.5c-7.9,0-13.7-5.8-13.7-13.7c0-7.6,6-13.4,13.7-13.4c7.6,0,13.5,5.8,13.5,13.4
		C322.4,44.7,316.5,50.5,308.9,50.5L308.9,50.5z M320.8,57v74h-23.7V57C297.1,57,320.8,57,320.8,57z M366.2,132.6
		c-11.7,0-21-3.6-28.4-10.9c-7.2-7.2-10.9-16.5-10.9-27.9s3.6-20.6,11-27.9c7.4-7.2,16.9-10.8,28.7-10.8c15.4,0,29,7.5,35.2,21.6
		L383,86.6c-3.8-6.3-9-9.5-15.8-9.5c-5,0-9,1.6-12.2,4.8c-3.1,3.2-4.8,7.5-4.7,11.9c0,9.8,7.1,17,16.6,17c6.8,0,13.1-3.8,15.8-9.5
		l18.9,11.3C395.2,125,381.9,132.6,366.2,132.6L366.2,132.6z M483.9,131h-28.1l-21.9-29.3l-3.5,3.2V131h-23.6V28.8h23.6v49.7
		L452.6,57h28.8l-31.8,29.8L483.9,131z M485.4,92.5V32h25.2v60.2c0,11.1,6.4,16.5,15.7,16.5c9.1,0,15.5-5.6,15.5-16.5V32h25.3v60.6
		c0,29.2-20.2,40.2-40.9,40.2C505.8,132.7,485.4,121.8,485.4,92.5z M623.2,55.2c10.6,0,19.2,3.8,26,11.3
		c6.8,7.4,10.2,16.6,10.2,27.5c0,10.9-3.5,20.1-10.3,27.7c-6.8,7.5-15.4,11.3-25.7,11.3c-8.2,0-15.3-2.7-21-8v36.6h-23.7V57h23.3
		v6.8C607.6,58.1,614.7,55.2,623.2,55.2L623.2,55.2z M635.2,94.2c0-9.7-7-17-16.6-17c-9.7,0-16.8,7.4-16.8,17
		c0,4.7,1.6,8.7,4.7,12.1c3.2,3.3,7.2,5,12.1,5c4.8,0,8.8-1.6,11.9-5C633.6,103,635.3,98.6,635.2,94.2L635.2,94.2z"/>
</g>
</svg>
