<svg id="Layer_2" data-name="Layer 2" xmlns="http://www.w3.org/2000/svg" viewBox="0 0 596.33 198.26"><defs><style>.cls-1{fill:#aff2d8;}.cls-2{fill:#87ceb7;}.cls-3{fill:#c3fff9;}.cls-4{fill:#8cd3b9;}.cls-5{fill:#92d6be;}.cls-6{fill:#92ddc2;}</style></defs><title>clouds</title><path class="cls-1" d="M306.31,246.23h-74c-12.8,0-23.22-10.71-23.22-23.86a23.54,23.54,0,0,1,20.79-23.74c2-16,15.36-28,31.07-28,17.27,0,31.33,14.44,31.33,32.2a32.08,32.08,0,0,1-.18,3.39,21.11,21.11,0,0,1,11.82-4.55l1.77-.12.73,1.66a15.54,15.54,0,0,0,14.17,9.43h3.49l.71,1.47a23,23,0,0,1,2.2,9.81c0,11.65-8.85,21.42-20.16,22.24l-.28.06Z" transform="translate(-159.05 -47.98)"/><path class="cls-2" d="M224.65,222.71a24.16,24.16,0,0,1,20-24.13h15.28a5,5,0,0,0,4.94-5.06v0h0a5,5,0,0,0-4.92-5.08H254a3,3,0,0,1-3-3,3,3,0,0,1,.58-1.77,32.39,32.39,0,0,1,12.55-10.78,1.11,1.11,0,0,0-.35-2.1c-.93-.09-1.87-.13-2.81-.13-15.71,0-29,12-31.07,28a23.53,23.53,0,0,0-20.79,23.6,23.88,23.88,0,0,0,23.56,24h5.27a.76.76,0,0,0,.72-.8.75.75,0,0,0-.4-.63A24.54,24.54,0,0,1,224.65,222.71Z" transform="translate(-159.05 -47.98)"/><path class="cls-3" d="M694.5,124.43a30.89,30.89,0,1,1,30.15-37.61,20.26,20.26,0,1,1,10.48,37.61Z" transform="translate(-159.05 -47.98)"/><path class="cls-4" d="M687.51,93.54a31.45,31.45,0,0,1,.24-3.88h12.62a5.19,5.19,0,0,0,5.19-5.19h0a5.19,5.19,0,0,0-5.19-5.19h-3.62a3.11,3.11,0,0,1-2.44-5,31,31,0,0,1,10.86-8.6.59.59,0,0,0,.3-.78.62.62,0,0,0-.3-.3A30.86,30.86,0,0,0,663.61,94c.25,17,14.42,30.44,31.39,30.44h23.4A30.93,30.93,0,0,1,687.51,93.54Z" transform="translate(-159.05 -47.98)"/><path class="cls-3" d="M185.19,100.26a26.14,26.14,0,1,1,25.5-31.88,17.16,17.16,0,1,1,8.82,31.88Z" transform="translate(-159.05 -47.98)"/><path class="cls-3" d="M330.53,214.38A26.14,26.14,0,1,1,356,182.5a17.16,17.16,0,1,1,8.82,31.88Z" transform="translate(-159.05 -47.98)"/><path class="cls-5" d="M194.47,100.26a1,1,0,0,0,1-1,1,1,0,0,0-.56-.88,26.58,26.58,0,0,1-15.74-24.23V73a3.13,3.13,0,0,1,3.13-3h7.57a5.21,5.21,0,0,0,5.27-5,5.08,5.08,0,0,0-4.94-5.22H190a3.14,3.14,0,0,1-3-3.25,3.17,3.17,0,0,1,1-2.15,25.49,25.49,0,0,1,3.68-2.77,1.6,1.6,0,0,0,.54-2.2,1.54,1.54,0,0,0-1-.72,25.77,25.77,0,0,0-6-.71,26.15,26.15,0,0,0-26.13,26.19v.45c.27,14.31,12.26,25.63,26.57,25.63Z" transform="translate(-159.05 -47.98)"/><path class="cls-6" d="M345.4,214.89a26.18,26.18,0,0,1-25.56-20.68,5,5,0,0,1,3.9-5.9,5.23,5.23,0,0,1,1-.1h7.74a5.51,5.51,0,0,0,5.56-5.28,5.37,5.37,0,0,0-5.26-5.48h-5.68a2.94,2.94,0,0,1-2.32-4.73,26.23,26.23,0,0,1,8.48-7.12,1.31,1.31,0,0,0-.37-2.44,26.11,26.11,0,0,0-31.54,26.07c.27,14.31,12.26,25.63,26.57,25.63Z" transform="translate(-159.05 -47.98)"/></svg>