<?xml version="1.0" encoding="utf-8"?>
<!-- Generator: Adobe Illustrator 22.1.0, SVG Export Plug-In . SVG Version: 6.00 Build 0)  -->
<svg version="1.1" id="Layer_1" xmlns="http://www.w3.org/2000/svg" xmlns:xlink="http://www.w3.org/1999/xlink" x="0px" y="0px"
	 viewBox="0 0 280 66.2" style="enable-background:new 0 0 280 66.2;" xml:space="preserve">
<style type="text/css">
	.st0{fill:#FFFFFF;}
</style>
<title>Asset 1</title>
<g id="Layer_2_1_">
	<g id="Layer_1-2">
		<path class="st0" d="M60.3,36.4C60.3,52,48.6,64.7,33.8,66c0,0-19.1,0.5-25.4-0.1c-2.4-0.3-4.4-1.8-5.3-4c0.9,0.4,1.8,0.7,2.8,0.8
			C8,62.9,11.5,63,16.4,63c7.2,0,15.1-0.2,15.1-0.2h0.1c7.9-0.7,15.2-4.3,20.4-10.2c4.5-5,7.4-11.3,8.2-17.9
			C60.3,35.2,60.3,35.8,60.3,36.4z"/>
		<path class="st0" d="M58,30c0,15.6-11.7,28.3-26.6,29.5c0,0-19.1,0.5-25.4-0.1c-3.4-0.3-5.9-3.5-6-7.1l0.1-45
			c0.1-3.6,2.7-6.8,6.1-7.1c6.3-0.5,25.4,0.1,25.4,0.1C46.4,1.6,58,14.4,58,30z"/>
		<path class="st0" d="M77.2,18.4c0-0.5,0.4-0.8,0.8-0.8h13.3c0.4,0,1.2,0,1.6,0.1c0,0,6.1,0.6,8.9,2c2.7,1.3,5,3.4,6.6,6
			c1.6,2.7,2.4,5.8,2.3,9c0.1,3.2-0.7,6.3-2.3,9c-1.6,2.6-3.9,4.7-6.6,6c-2.8,1.4-8.9,2-8.9,2c-0.4,0-1.2,0.1-1.6,0.1H78
			c-0.5,0-0.8-0.4-0.8-0.8L77.2,18.4z M91,46.4c0.4,0,1.2,0,1.6-0.1c2-0.2,3.9-0.6,5.8-1.3c1.8-0.9,3.4-2.3,4.4-4.1
			c1.1-1.9,1.6-4,1.5-6.2c0-2.2-0.5-4.3-1.5-6.2c-1-1.8-2.6-3.2-4.4-4.1c-1.9-0.7-3.8-1.2-5.8-1.4c-0.4,0-1.2,0-1.6,0h-6.7
			c-0.5,0-0.8,0.4-0.8,0.8v21.8c0,0.5,0.4,0.8,0.8,0.8L91,46.4z"/>
		<path class="st0" d="M141.4,39.9c0,0.5-0.4,0.8-0.9,0.8h-18.8c-0.3,0-0.6,0.2-0.6,0.5c0,0.1,0,0.2,0.1,0.3
			c0.5,1.4,1.4,2.7,2.5,3.8c1.6,1.2,3.6,1.8,5.6,1.7c2.9,0,6.4-2.4,6.4-2.4c0.4-0.2,0.9-0.2,1.2,0.2l2.2,2.5
			c0.3,0.3,0.3,0.9-0.1,1.2c-1.1,1-2.4,1.9-3.9,2.6c-4.4,1.6-9.4,1.4-13.6-0.6c-2.1-1.1-3.9-2.7-5.1-4.8c-1.2-2.1-1.8-4.5-1.8-6.9
			c0-2.4,0.6-4.8,1.7-6.9c1.1-2,2.8-3.7,4.8-4.8c2.1-1.2,4.5-1.7,6.9-1.7c2.4,0,4.7,0.5,6.8,1.7c2,1.1,3.6,2.7,4.7,4.7
			c1.2,2.2,1.7,4.6,1.7,7.1C141.4,39.3,141.4,39.9,141.4,39.9z M123.3,32c-1,1.1-1.8,2.4-2.2,3.8c-0.1,0.3,0,0.6,0.3,0.7
			c0.1,0,0.2,0,0.3,0h13.2c0.3,0,0.6-0.2,0.6-0.5c0-0.1,0-0.2,0-0.3c-0.4-1.4-1.2-2.7-2.1-3.8c-1.4-1.2-3.2-1.8-5-1.8
			C126.4,30.2,124.7,30.8,123.3,32z"/>
		<path class="st0" d="M170.4,25.7c0.3,0,0.5,0.1,0.6,0.4c0,0.1,0,0.2-0.1,0.3L160.4,51c-0.2,0.4-0.7,0.7-1.1,0.8h-4.6
			c-0.5,0-0.9-0.3-1.1-0.8l-10.5-24.5c-0.1-0.2-0.1-0.5,0.2-0.7c0.1-0.1,0.2-0.1,0.3-0.1h4.7c0.5,0,0.9,0.3,1.1,0.8l7.5,17.8
			c0.2,0.4,0.5,0.4,0.6,0l7.7-17.8c0.2-0.4,0.7-0.7,1.1-0.8H170.4z"/>
		<path class="st0" d="M184,23.5c-0.1,0.5-0.2,1-0.2,1.6c0,0.4,0.4,0.8,0.8,0.8h5.5c0.5,0,0.8,0.4,0.8,0.8v3.2
			c0,0.5-0.4,0.8-0.8,0.8h-5.3c-0.5,0-0.8,0.4-0.8,0.8V51c0,0.5-0.4,0.8-0.8,0.8h-4.5c-0.5,0-0.8-0.4-0.8-0.8V31.6
			c0-0.5-0.4-0.8-0.8-0.8h-2.6c-0.5,0-0.8-0.4-0.8-0.8v-3.2c0-0.5,0.4-0.8,0.8-0.8h2.6c0.5,0,0.8-0.4,0.8-0.8l0,0
			c0-0.5,0.1-1.1,0.1-1.6c0,0,0.7-4.2,2.3-5.8c1.9-1.7,4.4-2.6,6.9-2.4c1.6,0.1,3.3,0.4,4.8,1.1c0.4,0.2,0.6,0.7,0.5,1.1l-1.1,3
			c-0.1,0.4-0.6,0.6-0.9,0.4c0,0,0,0-0.1,0c-0.8-0.4-1.7-0.6-2.6-0.7C185,20.1,184,23.5,184,23.5z"/>
		<path class="st0" d="M199.2,50.4c-2.1-1.1-3.8-2.7-5-4.8c-1.2-2.1-1.8-4.5-1.8-6.9c0-2.4,0.6-4.8,1.8-6.9c1.2-2,2.9-3.7,5-4.7
			c4.5-2.3,9.8-2.3,14.3,0c2.1,1.1,3.8,2.7,5,4.7c1.2,2.1,1.8,4.5,1.8,6.9c0,2.4-0.6,4.8-1.8,6.9c-1.2,2-2.9,3.7-5,4.8
			C209,52.7,203.7,52.7,199.2,50.4z M211.9,44.6c1.5-1.6,2.3-3.7,2.2-5.9c0.1-2.2-0.7-4.3-2.2-5.9c-1.5-1.5-3.5-2.3-5.6-2.3
			c-2.1-0.1-4.1,0.8-5.5,2.3c-1.5,1.6-2.3,3.7-2.2,5.9c-0.1,2.2,0.7,4.3,2.2,5.9c1.4,1.5,3.5,2.3,5.5,2.3
			C208.4,47,210.5,46.1,211.9,44.6L211.9,44.6z"/>
		<path class="st0" d="M240.5,20.3c-1.4-1.4-1.5-3.6-0.1-5.1c0,0,0.1-0.1,0.1-0.1c0.8-0.7,1.8-1,2.8-1c1,0,2,0.3,2.8,1
			c0.7,0.6,1.1,1.6,1.1,2.5c0,1-0.4,2-1.1,2.7c-0.7,0.7-1.8,1.1-2.8,1.1C242.3,21.5,241.3,21.1,240.5,20.3z M240.3,26.5
			c0-0.5,0.4-0.8,0.8-0.8h4.5c0.5,0,0.8,0.4,0.8,0.8V51c0,0.5-0.4,0.8-0.8,0.8h-4.5c-0.5,0-0.8-0.4-0.8-0.8V26.5z"/>
		<path class="st0" d="M259,50.4c-2.1-1.1-3.8-2.7-5-4.8c-1.2-2.1-1.8-4.5-1.8-6.9c0-2.4,0.6-4.8,1.8-6.9c1.2-2,2.9-3.7,5-4.7
			c4.5-2.3,9.8-2.3,14.3,0c2.1,1.1,3.8,2.7,5,4.7c1.2,2.1,1.8,4.5,1.7,6.9c0,2.4-0.6,4.8-1.8,6.9c-1.2,2-2.9,3.7-5,4.8
			C268.7,52.7,263.4,52.7,259,50.4L259,50.4z M271.7,44.6c1.5-1.6,2.3-3.7,2.2-5.9c0.1-2.2-0.7-4.3-2.2-5.9
			c-1.5-1.5-3.5-2.3-5.6-2.3c-2.1-0.1-4.1,0.8-5.5,2.3c-1.5,1.6-2.3,3.7-2.2,5.9c-0.1,2.2,0.7,4.3,2.2,5.9c1.4,1.5,3.5,2.3,5.5,2.3
			C268.2,47,270.2,46.1,271.7,44.6L271.7,44.6z"/>
		<path class="st0" d="M226.1,16.4c0-0.5,0.4-0.8,0.8-0.8h4.5c0.5,0,0.8,0.4,0.8,0.8V51c0,0.5-0.4,0.8-0.8,0.8H227
			c-0.5,0-0.8-0.4-0.8-0.8L226.1,16.4z"/>
	</g>
</g>
</svg>
