<?xml version="1.0" encoding="utf-8"?>
<!-- Generator: Adobe Illustrator 22.1.0, SVG Export Plug-In . SVG Version: 6.00 Build 0)  -->
<svg version="1.1" id="Layer_1" xmlns="http://www.w3.org/2000/svg" xmlns:xlink="http://www.w3.org/1999/xlink" x="0px" y="0px"
	 viewBox="0 0 20 20" style="enable-background:new 0 0 20 20;" xml:space="preserve">
<style type="text/css">
	.st0{fill:#FFA600;}
</style>
<title>Facebook</title>
<desc>Created with Sketch.</desc>
<g id="ETHindia-Team" transform="translate(-1098.000000, -991.000000)">
	<g id="Group-2" transform="translate(1068.000000, 991.000000)">
		<path id="Facebook" class="st0" d="M50,3.3C50,1.6,48.4,0,46.7,0H33.3C31.6,0,30,1.6,30,3.3v13.3c0,1.8,1.6,3.3,3.3,3.3H40v-7.6
			h-2.4V9.1H40V7.8c0-2.2,1.7-4.3,3.8-4.3h2.7v3.3h-2.7c-0.3,0-0.6,0.4-0.6,0.9v1.3h3.3v3.3h-3.3V20h3.6c1.8,0,3.3-1.6,3.3-3.3V3.3z
			"/>
	</g>
</g>
</svg>
