<?xml version="1.0" encoding="utf-8"?>
<!-- Generator: Adobe Illustrator 22.1.0, SVG Export Plug-In . SVG Version: 6.00 Build 0)  -->
<svg version="1.1" id="Layer_1" xmlns="http://www.w3.org/2000/svg" xmlns:xlink="http://www.w3.org/1999/xlink" x="0px" y="0px"
	 viewBox="0 0 900 250" style="enable-background:new 0 0 900 250;" xml:space="preserve">
<style type="text/css">
	.st0{fill:#FFFFFF;}
</style>
<g>
	<path class="st0" d="M190.3,111.7H120c-1.8,0-3.3,1.5-3.3,3.3v34.3c0,1.8,1.5,3.3,3.3,3.3h27.4v42.7c0,0-6.2,2.1-23.2,2.1
		c-20.1,0-48.1-7.3-48.1-69c0-61.6,29.2-69.8,56.6-69.8c23.7,0,33.9,4.2,40.4,6.2c2,0.6,3.9-1.4,3.9-3.2l7.8-33.2
		c0-0.8-0.3-1.9-1.3-2.6C181.1,24,165,15,124.3,15c-46.9,0-95,19.9-95,115.8c0,95.9,55.1,110.2,101.5,110.2
		c38.4,0,61.7-16.4,61.7-16.4c1-0.5,1.1-1.9,1.1-2.5V115C193.5,113.2,192.1,111.7,190.3,111.7z"/>
	<path class="st0" d="M552.2,26.5c0-1.8-1.4-3.3-3.3-3.3h-39.5c-1.8,0-3.3,1.5-3.3,3.3c0,0,0,76.4,0,76.4h-61.6V26.5
		c0-1.8-1.5-3.3-3.3-3.3h-39.5c-1.8,0-3.3,1.5-3.3,3.3v206.9c0,1.8,1.5,3.3,3.3,3.3h39.5c1.8,0,3.3-1.5,3.3-3.3v-88.5h61.6
		c0,0-0.1,88.5-0.1,88.5c0,1.8,1.5,3.3,3.3,3.3h39.6c1.8,0,3.3-1.5,3.3-3.3V26.5z"/>
	<g>
		<g>
			<path class="st0" d="M264.9,53.6c0-14.2-11.4-25.7-25.5-25.7c-14.1,0-25.5,11.5-25.5,25.7c0,14.2,11.4,25.8,25.5,25.8
				C253.5,79.4,264.9,67.9,264.9,53.6z"/>
			<path class="st0" d="M262.1,189.8c0-5.3,0-95.5,0-95.5c0-1.8-1.5-3.3-3.3-3.3h-39.4c-1.8,0-3.4,1.9-3.4,3.7c0,0,0,114.9,0,136.8
				c0,4,2.5,5.2,5.7,5.2c0,0,16.8,0,35.5,0c3.9,0,4.9-1.9,4.9-5.3C262.1,224.1,262.1,195.3,262.1,189.8z"/>
		</g>
	</g>
	<path class="st0" d="M702.4,91.3h-39.2c-1.8,0-3.3,1.5-3.3,3.3V196c0,0-10,7.3-24.1,7.3c-14.1,0-17.9-6.4-17.9-20.3
		c0-13.9,0-88.5,0-88.5c0-1.8-1.5-3.3-3.3-3.3h-39.8c-1.8,0-3.3,1.5-3.3,3.3c0,0,0,54,0,95.2c0,41.1,22.9,51.2,54.5,51.2
		c25.9,0,46.7-14.3,46.7-14.3s1,7.5,1.4,8.4c0.5,0.9,1.6,1.8,2.9,1.8l25.3-0.1c1.8,0,3.3-1.5,3.3-3.3l0-138.9
		C705.7,92.7,704.3,91.3,702.4,91.3z"/>
	<path class="st0" d="M809.7,86.6c-22.3,0-37.4,9.9-37.4,9.9V26.5c0-1.8-1.5-3.3-3.3-3.3h-39.7c-1.8,0-3.3,1.5-3.3,3.3v206.9
		c0,1.8,1.5,3.3,3.3,3.3c0,0,27.5,0,27.5,0c1.2,0,2.2-0.6,2.9-1.8c0.7-1.1,1.7-9.5,1.7-9.5s16.2,15.4,46.9,15.4
		c36,0,56.7-18.3,56.7-82.1C865,94.9,832,86.6,809.7,86.6z M794.2,203.2c-13.6-0.4-22.8-6.6-22.8-6.6v-65.5c0,0,9.1-5.6,20.3-6.6
		c14.1-1.3,27.7,3,27.7,36.7C819.4,196.7,813.3,203.8,794.2,203.2z"/>
	<path class="st0" d="M375.7,90.9H346c0,0,0-39.2,0-39.2c0-1.5-0.8-2.2-2.5-2.2h-40.4c-1.6,0-2.4,0.7-2.4,2.2v40.5
		c0,0-20.3,4.9-21.6,5.3c-1.4,0.4-2.4,1.7-2.4,3.2v25.4c0,1.8,1.5,3.3,3.3,3.3h20.7c0,0,0,26.6,0,61.2c0,45.5,31.9,49.9,53.4,49.9
		c9.8,0,21.6-3.2,23.5-3.9c1.2-0.4,1.9-1.6,1.9-3l0-28c0-1.8-1.5-3.3-3.3-3.3c-1.7,0-6.2,0.7-10.7,0.7c-14.6,0-19.5-6.8-19.5-15.5
		c0-8.8,0-58.2,0-58.2h29.7c1.8,0,3.3-1.5,3.3-3.3V94.2C379,92.4,377.5,90.9,375.7,90.9z"/>
</g>
</svg>
