<?xml version="1.0" encoding="utf-8"?>
<!-- Generator: Adobe Illustrator 22.1.0, SVG Export Plug-In . SVG Version: 6.00 Build 0)  -->
<svg version="1.1" id="Layer_1" xmlns="http://www.w3.org/2000/svg" xmlns:xlink="http://www.w3.org/1999/xlink" x="0px" y="0px"
	 viewBox="0 0 20 20" style="enable-background:new 0 0 20 20;" xml:space="preserve">
<style type="text/css">
	.st0{fill:#FFA600;}
</style>
<title>Instagram</title>
<desc>Created with Sketch.</desc>
<g id="ETHindia-Team" transform="translate(-1128.000000, -991.000000)">
	<g id="Group-2" transform="translate(1068.000000, 991.000000)">
		<path id="Instagram" class="st0" d="M70,0c-2.7,0-3.1,0-4.1,0.1c-1.1,0-1.8,0.2-2.4,0.5c-0.7,0.3-1.2,0.6-1.8,1.2
			c-0.6,0.6-0.9,1.1-1.2,1.8c-0.2,0.6-0.4,1.4-0.5,2.4C60,6.9,60,7.3,60,10s0,3.1,0.1,4.1c0,1.1,0.2,1.8,0.5,2.4
			c0.3,0.7,0.6,1.2,1.2,1.8c0.6,0.6,1.1,0.9,1.8,1.2c0.6,0.2,1.4,0.4,2.4,0.5c1.1,0,1.4,0.1,4.1,0.1s3.1,0,4.1-0.1
			c1.1,0,1.8-0.2,2.4-0.5c0.7-0.3,1.2-0.6,1.8-1.2c0.6-0.6,0.9-1.1,1.2-1.8c0.2-0.6,0.4-1.4,0.5-2.4c0-1.1,0.1-1.4,0.1-4.1
			s0-3.1-0.1-4.1c0-1.1-0.2-1.8-0.5-2.4c-0.3-0.7-0.6-1.2-1.2-1.8c-0.6-0.6-1.1-0.9-1.8-1.2c-0.6-0.2-1.4-0.4-2.4-0.5
			C73.1,0,72.7,0,70,0z M70,1.8c2.7,0,3,0,4,0.1c1,0,1.5,0.2,1.9,0.3C76.4,2.4,76.7,2.6,77,3c0.3,0.3,0.6,0.7,0.7,1.1
			C77.9,4.5,78.1,5,78.1,6c0,1.1,0.1,1.4,0.1,4s0,3-0.1,4c0,1-0.2,1.5-0.3,1.9c-0.2,0.5-0.4,0.8-0.7,1.1c-0.3,0.3-0.7,0.6-1.2,0.7
			c-0.4,0.1-0.9,0.3-1.9,0.3c-1.1,0-1.4,0.1-4,0.1c-2.7,0-3,0-4-0.1c-1,0-1.5-0.2-1.9-0.3c-0.5-0.2-0.8-0.4-1.1-0.7
			c-0.3-0.4-0.6-0.7-0.7-1.2c-0.1-0.4-0.3-0.9-0.3-1.9c0-1.1-0.1-1.4-0.1-4s0-3,0.1-4c0-1,0.2-1.5,0.3-1.9C62.4,3.6,62.6,3.3,63,3
			c0.4-0.3,0.7-0.6,1.2-0.7C64.5,2.1,65,1.9,66,1.9C67,1.8,67.3,1.8,70,1.8z M70,4.9c-2.8,0-5.1,2.3-5.1,5.1s2.3,5.1,5.1,5.1
			s5.1-2.3,5.1-5.1S72.8,4.9,70,4.9z M70,13.3c-1.8,0-3.3-1.5-3.3-3.3s1.5-3.3,3.3-3.3s3.3,1.5,3.3,3.3S71.8,13.3,70,13.3z
			 M76.5,4.7c0,0.7-0.5,1.2-1.2,1.2c-0.7,0-1.2-0.5-1.2-1.2s0.5-1.2,1.2-1.2C76,3.5,76.5,4,76.5,4.7z"/>
	</g>
</g>
</svg>
