<?xml version="1.0" encoding="utf-8"?>
<!-- Generator: Adobe Illustrator 22.1.0, SVG Export Plug-In . SVG Version: 6.00 Build 0)  -->
<svg version="1.1" id="Layer_1" xmlns="http://www.w3.org/2000/svg" xmlns:xlink="http://www.w3.org/1999/xlink" x="0px" y="0px"
	 viewBox="0 0 20 20" style="enable-background:new 0 0 20 20;" xml:space="preserve">
<style type="text/css">
	.st0{fill:#FFA600;}
</style>
<title>Linkedin</title>
<desc>Created with Sketch.</desc>
<g id="ETHindia-Team" transform="translate(-1159.000000, -991.000000)">
	<g id="Group-2" transform="translate(1068.000000, 991.000000)">
		<path id="Linkedin" class="st0" d="M94,0c-1.5,0-3,1.5-3,3v14c0,1.6,1.5,3,3,3h14c1.5,0,3-1.5,3-3V3c0-1.6-1.5-3-3-3H94z
			 M97.1,16.7h-3V7.8h3V16.7z M95.6,6.5L95.6,6.5c-1,0-1.7-0.7-1.7-1.5c0-0.9,0.7-1.5,1.7-1.5c1,0,1.7,0.7,1.7,1.5
			C97.3,5.9,96.7,6.5,95.6,6.5z M107.9,16.7h-3v-4.8c0-1.2-0.4-2-1.5-2c-0.8,0-1.3,0.6-1.5,1.1c-0.1,0.2-0.1,0.5-0.1,0.7v5h-3
			c0,0,0-8.1,0-8.9h3V9c0.4-0.6,1.1-1.5,2.7-1.5c2,0,3.4,1.3,3.4,4V16.7z M101.7,9.1C101.7,9,101.7,9,101.7,9.1L101.7,9.1L101.7,9.1
			z"/>
	</g>
</g>
</svg>
