<?xml version="1.0" encoding="utf-8"?>
<!-- Generator: Adobe Illustrator 22.1.0, SVG Export Plug-In . SVG Version: 6.00 Build 0)  -->
<svg version="1.1" id="Layer_1" xmlns="http://www.w3.org/2000/svg" xmlns:xlink="http://www.w3.org/1999/xlink" x="0px" y="0px"
	 viewBox="0 0 20 16" style="enable-background:new 0 0 20 16;" xml:space="preserve">
<style type="text/css">
	.st0{fill:none;}
	.st1{fill:#FFA600;}
</style>
<title>Medium</title>
<desc>Created with Sketch.</desc>
<g id="ETHindia-Team" transform="translate(-1248.000000, -993.000000)">
	<g id="Group-2" transform="translate(1068.000000, 991.000000)">
		<g id="Medium" transform="translate(180.000000, 0.000000)">
			<rect id="Rectangle-Copy" class="st0" width="20" height="20"/>
			<g id="medium-1" transform="translate(0.000000, 2.000000)">
				<path id="Shape" class="st1" d="M20,2.3h-0.8c-0.3,0-0.7,0.4-0.7,0.7v9.9c0,0.3,0.4,0.6,0.7,0.6H20v2.3h-7.2v-2.3h1.5V3.2h-0.1
					l-3.5,12.7H8L4.6,3.2H4.5v10.4H6v2.3H0v-2.3h0.8c0.3,0,0.7-0.4,0.7-0.6V3c0-0.3-0.4-0.7-0.7-0.7H0V0h7.5L10,9.2H10L12.5,0H20
					V2.3"/>
			</g>
		</g>
	</g>
</g>
</svg>
