<?xml version="1.0" encoding="utf-8"?>
<!-- Generator: Adobe Illustrator 22.1.0, SVG Export Plug-In . SVG Version: 6.00 Build 0)  -->
<svg version="1.1" id="Layer_1" xmlns="http://www.w3.org/2000/svg" xmlns:xlink="http://www.w3.org/1999/xlink" x="0px" y="0px"
	 viewBox="0 0 4000 800" style="enable-background:new 0 0 4000 800;" xml:space="preserve">
<style type="text/css">
	.st0{fill:#FFFFFF;}
</style>
<path class="st0" d="M861,610.7c-52.4,0-100.4-5.8-142.5-48l54.5-54.5c27.6,27.6,63.3,31.3,89.4,31.3c29.1,0,58.9-9.5,58.9-34.9
	c0-16.7-8.7-28.4-35.6-30.5l-52.4-5.1c-60.4-5.8-97.4-32-97.4-93.8c0-69.1,61.1-106.9,129.4-106.9c52.4,0,96,8.7,128,39.3
	l-51.6,52.4c-19.6-17.5-48.7-22.5-77.8-22.5c-33.5,0-47.3,15.3-47.3,32c0,12.4,5.1,26.2,34.9,29.1l52.4,5.1
	c66.2,6.5,99.6,41.5,99.6,98.2C1003.5,575.8,940.3,610.7,861,610.7z"/>
<path class="st0" d="M1149,607.1c-68.4,0-96.7-48-96.7-96V345.3h-35.6v-63.3h35.6v-98.9h83.6v98.9h58.9v63.3h-58.9V506
	c0,18.9,8.7,30.5,29.1,30.5h30.5v70.5L1149,607.1L1149,607.1z"/>
<path class="st0" d="M1231.9,215.1v-68.4h85.8v68.4H1231.9z M1233.3,607.1V272.6h83.6v334.5H1233.3z"/>
<path class="st0" d="M1505.3,610.7c-66.9,0-149.8-35.6-149.8-171.6c0-135.3,82.9-170.9,149.8-170.9c46.5,0,80.7,13.8,110.5,45.1
	l-56.7,56.7c-17.5-18.9-32-26.2-53.8-26.2c-19.6,0-35.6,7.3-47.3,21.8c-13.1,16-18.9,38.5-18.9,74.2c0,35.6,5.8,58.2,18.9,74.9
	c12.4,14.5,27.6,21.8,47.3,21.8c21.8,0,36.4-8,53.8-26.2l56.7,56C1586,596.2,1551.9,610.7,1505.3,610.7z"/>
<path class="st0" d="M1846.4,607.1l-82.2-139.6l-35.6,40v99.6h-83.6V149.7h83.6v259.6l111.3-136.7h101.1l-119.3,135.3l128.7,200
	L1846.4,607.1L1846.4,607.1z"/>
<path class="st0" d="M2019.5,465.3c0,42.9,26.2,74.2,73.4,74.2c36.4,0,54.5-10.2,75.6-31.3l50.9,49.4
	c-34.2,34.2-66.9,52.4-127.3,52.4c-79.3,0-154.9-35.6-154.9-171.6c0-109.1,58.9-170.9,146.2-170.9c93.1,0,146.2,68.4,146.2,160v37.1
	L2019.5,465.3L2019.5,465.3z M2139.4,372.2c-8.7-19.6-27.6-34.9-56-34.9c-28.4,0-47.3,14.5-56,34.9c-5.1,12.4-7.3,21.1-8,35.6h127.3
	C2146,393.3,2144.5,384.6,2139.4,372.2z"/>
<path class="st0" d="M2450.7,363.5c-13.1-13.1-24-19.6-44.4-19.6c-25.5,0-53.8,19.6-53.8,61.8v201.4h-83.6V272.6h81.4v32
	c16-19.6,48-35.6,84.4-35.6c32.7,0,56,8,79.3,31.3L2450.7,363.5z"/>
<path class="st0" d="M461.1,644.2c-5.1,2.2-11.6,1.5-18.2,2.2c-5.8,0-13.8,0-17.5-2.9c-2.2-1.5-2.2-5.1-2.2-7.3s0.7-5.8,0.7-8
	c0.7-2.9,1.5-7.3,0-9.5c-1.5-2.2-6.5-1.5-9.5-2.9c-2.9-1.5-3.6-5.8-4.4-10.2c0-1.5-1.5-2.9-1.5-3.6c-0.7-6.5,1.5-16,2.9-22.5
	c1.5-7.3,3.6-13.8,5.1-21.1c2.2-10.2,2.2-21.8,1.5-32.7c0-5.8-1.5-10.2,0-14.5c0.7-4.4,2.9-8,3.6-12.4c0-1.5,0-2.9,0-4.4
	c0-1.5,0.7-2.2,0.7-3.6c0-2.9-0.7-6.5-0.7-10.2c-0.7-9.5,0-23.3,0.7-31.3c0-2.9,1.5-5.8-0.7-7.3c-10.2,0-18.9,1.5-28.4,2.9
	c-24.7,2.9-56.7,3.6-80.7-1.5c-2.2-0.7-4.4-0.7-6.5-0.7c-17.5-3.6-32.7-11.6-45.1-21.1c-2.2-1.5-4.4-2.9-6.5-5.1
	c-2.2-1.5-4.4-3.6-6.5-5.1c-9.5-4.4-22.5,0.7-26.9,7.3c-1.5,2.2-2.9,5.8-4.4,8.7c-1.5,2.9-2.9,5.8-3.6,8.7
	c-6.5,14.5-13.8,29.1-20.4,43.6c-3.6,8.7-8,18.2-10.9,27.6c-5.8,20.4-0.7,47.3,4.4,66.9c0.7,1.5,1.5,3.6,2.2,5.8
	c1.5,4.4,4.4,10.9,8,13.8c2.2,1.5,5.1,2.9,7.3,4.4c2.9,2.2,4.4,6.5,6.5,10.9c0.7,1.5,2.2,3.6,2.9,5.8c2.2,4.4,3.6,8-1.5,10.9
	c-3.6,2.2-9.5,2.2-14.5,2.9c-2.2,0.7-1.5,3.6-2.9,5.1c-0.7,0.7-4.4,2.2-5.8,2.9c-6.5,2.2-18.2,2.2-23.3,0c-2.9-0.7-5.8-2.9-6.5-5.1
	c-1.5-4.4,2.2-9.5-0.7-12.4c-1.5-1.5-4.4-1.5-6.5-2.2c-3.6-1.5-6.5-5.1-8.7-8.7c-3.6-10.2-1.5-25.5-2.2-37.8c0-3.6-0.7-7.3-0.7-11.6
	c0-7.3-2.2-14.5-2.9-21.8c-0.7-3.6-1.5-6.5-2.2-9.5c-1.5-5.1-2.2-10.9-3.6-16c-1.5-5.8-1.5-11.6,0-16c0.7-1.5,2.2-2.9,2.9-4.4
	c1.5-2.9,1.5-5.8,1.5-8.7c-0.7-1.5-4.4,0-5.1-1.5c-2.2-16-4.4-31.3-5.8-48c-0.7-5.8-0.7-10.9-0.7-16.7c-0.7-10.9,0-22.5-1.5-33.5
	c-0.7-5.1-1.5-10.2-2.2-15.3c-2.2-14.5-5.8-32.7-2.9-48c2.2-9.5,5.1-17.5,10.9-24.7c3.6-5.1,8-9.5,12.4-14.5
	c4.4-4.4,9.5-8.7,14.5-12.4c3.6-2.2,7.3-5.1,10.9-7.3c8-3.6,18.9-7.3,30.5-8c11.6-0.7,24.7-0.7,35.6,1.5c10.9,2.2,21.8,3.6,32.7,5.8
	c10.2,2.2,20.4,5.1,30.5,7.3c1.5,0,2.2,1.5,3.6,1.5c2.9,0.7,6.5,0.7,10.2,2.2c9.5,2.2,21.1,3.6,32.7,3.6c12.4,0,23.3,0,33.5-2.9
	c1.5-0.7,2.9-1.5,4.4-1.5c1.5-0.7,3.6-0.7,5.1-0.7c0.7,0,2.2-1.5,2.9-2.2c5.8-2.9,10.9-5.8,16-9.5c4.4-2.9,7.3-5.1,13.1-7.3
	c2.2-0.7,5.1-2.2,7.3-2.9c5.1-1.5,10.9-2.9,14.5-5.8c6.5-3.6,10.9-9.5,16-14.5c5.1-4.4,10.9-9.5,16.7-13.8
	c11.6-9.5,23.3-17.5,34.2-26.2c5.8-4.4,11.6-8.7,18.2-12.4c12.4-7.3,25.5-15.3,43.6-16.7c7.3-0.7,14.5-0.7,21.8,0
	c2.2,0,4.4,1.5,6.5,0.7c2.2-0.7,3.6-3.6,4.4-5.8c2.9-5.1,4.4-8,7.3-13.8c1.5-3.6,0.7-7.3,4.4-7.3c3.6,0,2.9,9.5,2.9,13.1
	c0,4.4-0.7,10.2,0,13.1c0.7,2.2,3.6,5.1,6.5,5.1c2.2,0,3.6-1.5,5.1-2.9c2.2-1.5,3.6-1.5,5.1-2.9c2.9-2.2,6.5-5.8,9.5-8.7
	c2.2-2.2,6.5-8.7,10.2-8c7.3,0.7,0,11.6-1.5,14.5c-3.6,8-7.3,14.5-11.6,21.8c-1.5,2.9-5.8,7.3-5.8,10.9c0,2.2,2.2,3.6,2.9,6.5
	c0.7,1.5,0.7,2.2,1.5,3.6c2.2,5.8,4.4,13.8,6.5,20.4c1.5,5.8,2.9,11.6,5.1,16.7c2.2,5.1,5.1,10.2,7.3,16c0.7,1.5,0.7,2.9,1.5,4.4
	c4.4,11.6,8.7,24.7,14.5,36.4c2.2,4.4,5.1,10.2,5.1,16.7c0,7.3-3.6,10.9-7.3,16.7c-1.5,2.9-4.4,7.3-7.3,8c-2.2,0.7-4.4,0-6.5,0
	c-2.9,0.7-5.1,2.2-7.3,2.2c-6.5,0.7-13.1-4.4-14.5-9.5c-0.7-1.5,0-3.6-0.7-5.8c-1.5-8-5.8-11.6-10.9-17.5c-3.6-3.6-6.5-5.8-10.9-8
	c-6.5-3.6-13.1-5.1-20.4-8.7c-2.2-1.5-5.8-2.9-8-2.2c-3.6,0.7-7.3,6.5-10.2,10.2c-17.5,23.3-33.5,47.3-50.2,69.8
	c-11.6,15.3-23.3,30.5-32.7,47.3c-2.2,4.4-3.6,9.5-5.8,14.5c-1.5,5.1-2.9,10.2-4.4,16c-6.5,18.9-8.7,42.2-14.5,61.8
	c-0.7,2.2-0.7,4.4-1.5,6.5c-2.9,10.2-5.8,21.8-8.7,32.7c-2.2,8-2.9,18.9-3.6,29.1c0,10.2-0.7,24,2.9,29.8c2.2,3.6,8.7,4.4,10.9,8
	c1.5,2.2,2.9,7.3,5.1,10.2c1.5,2.2,5.1,6.5,4.4,10.2c0,2.2-2.2,4.4-4.4,5.1c-2.2,0.7-5.1,0.7-7.3,1.5
	C462.5,639.8,463.2,642.7,461.1,644.2z"/>
<path class="st0" d="M2889.2,268.2c-41.5,0-72,13.1-100.4,42.2c-21.1-29.1-51.6-42.2-88.7-42.2c-30.5,0-61.8,12.4-83.6,34.9v-30.5
	H2535v334.5h83.6V405c0-45.8,29.8-61.1,56-61.1s55.3,15.3,55.3,61.1v202.2h83.6V402.8c0-43.6,30.5-58.9,56-58.9
	c26.2,0,55.3,15.3,55.3,61.1v202.2h83.6V393.3c0-36.4-9.5-68.4-36.4-95.3C2952.5,279.1,2922.6,268.2,2889.2,268.2z"/>
<path class="st0" d="M3252.1,474.8c0,45.8-29.8,61.1-56,61.1s-55.3-15.3-55.3-61.1V271.9h-83.6v214.5c0,36.4,7.3,68.4,34.2,95.3
	c18.9,18.9,45.8,29.8,79.3,29.8c30.5,0,61.8-11.6,83.6-34.9v30.5h81.4V272.6h-83.6V474.8z"/>
<path class="st0" d="M3472.4,506V149.7h-83.6v361.4c0,47.3,29.1,96,97.4,96h47.3v-70.5h-32C3480.4,536.6,3472.4,526.4,3472.4,506z"
	/>
<path class="st0" d="M3840.4,428.2c0-91.6-52.4-160-146.2-160c-86.5,0-146.2,61.8-146.2,170.9c0,135.3,75.6,171.6,154.9,171.6
	c60.4,0,93.1-18.9,127.3-52.4l-50.9-49.4c-21.1,21.1-39.3,31.3-75.6,31.3c-47.3,0-73.4-31.3-73.4-74.2h209.4L3840.4,428.2
	L3840.4,428.2z M3630.9,408.6c0.7-14.5,2.9-24,8-35.6c8.7-19.6,27.6-34.9,56-34.9c28.4,0,46.5,14.5,56,34.9
	c5.1,12.4,7.3,21.1,8,35.6H3630.9z"/>
</svg>
