<?xml version="1.0" encoding="utf-8"?>
<!-- Generator: Adobe Illustrator 22.1.0, SVG Export Plug-In . SVG Version: 6.00 Build 0)  -->
<svg version="1.1" id="Layer_1" xmlns="http://www.w3.org/2000/svg" xmlns:xlink="http://www.w3.org/1999/xlink" x="0px" y="0px"
	 viewBox="0 0 19 17" style="enable-background:new 0 0 19 17;" xml:space="preserve">
<style type="text/css">
	.st0{fill:#FFA600;}
	.st1{fill:#F9CE8A;}
	.st2{fill:none;}
</style>
<title>Telegram</title>
<desc>Created with Sketch.</desc>
<g id="ETHindia-Team" transform="translate(-1220.000000, -993.000000)">
	<g id="Group-2" transform="translate(1068.000000, 991.000000)">
		<g id="Telegram" transform="translate(151.000000, 0.000000)">
			<g id="Layer_1_1_" transform="translate(1.000000, 2.000000)">
				<g>
					<path id="Shape" class="st0" d="M15.7,15.6c0,0-0.4,1-1.5,0.5l-6.8-5.3L4.9,9.7L0.7,8.3c0,0-0.6-0.2-0.7-0.7
						C0,7.1,0.8,6.8,0.8,6.8l16.5-6.6c0,0,1.4-0.6,1.4,0.4L15.7,15.6z"/>
					<path id="Shape_1_" class="st1" d="M6.8,15.4c0,0-0.2,0-0.4-0.8c-0.2-0.8-1.5-4.9-1.5-4.9l10-6.4c0,0,0.6-0.4,0.6,0
						c0,0,0.1,0.1-0.2,0.4c-0.3,0.3-7.8,7.1-7.8,7.1"/>
					<path id="Shape_2_" class="st0" d="M9.9,12.9l-2.7,2.5c0,0-0.2,0.2-0.4,0.1l0.5-4.6"/>
				</g>
			</g>
			<rect id="Rectangle" class="st2" width="20" height="20"/>
		</g>
	</g>
</g>
</svg>
