<svg id="Layer_2" data-name="Layer 2" xmlns="http://www.w3.org/2000/svg" viewBox="0 0 1298 608.58"><defs><style>.cls-1{fill:none;}.cls-2{fill:#00a7d3;}.cls-3{fill:#21214f;}.cls-4{fill:#ffb800;}</style></defs><title>temples</title><path class="cls-1" d="M497.74,273.67c.3-5.42-2.1-7.89-7.26-9-2.71,7.59-7.41,13.55-14.77,16.67a99.31,99.31,0,0,1-16.36,4.9c-3.2.75-3.27,2.64-3,5s-.95,6,3,6c12.66.19,25.34.06,38.27.06C497.62,288.8,497.3,281.22,497.74,273.67Z" transform="translate(-1 -112.42)"/><path class="cls-1" d="M444.74,286.13c-13.17-2.41-24.88-7.22-30.51-21.3v32.52c9.78,0,19.7-.27,29.6.12,4.59.18,5.14-2,5.37-5.52S448.89,286.87,444.74,286.13Z" transform="translate(-1 -112.42)"/><path class="cls-2" d="M1297.71,657.31c.44-5.47-1.73-6.72-6.91-6.56-11.7.36-23.42-.07-35.13.18-4.3.09-5.37-1.39-5.31-5.4.16-13.15,0-26.3,0-39.45V507.36c0-18.46-.14-18.34-12.66-31.89L1134.36,363.14c-3.69-4-7.41-8-11.12-12l-1.51,1v6.13q-.07,96.9-.08,193.81v84.68c0,7.68-.06,7.72-8,7.78-6.83.08-13.64.05-20.47,0-7.65,0-7.59-.08-7.59-7.64,0-47.1,0-94.26.08-141.33,0-4.55-1.46-6.11-6.06-5.94-8.38.3-16.79.08-25.18.08-8.57,0-8.57,0-8.57-8.68V166.4c-2.57-.23-4.66-.57-6.68-.57-9.26-.14-18.51-.14-27.77-.14-12.05,0-24.11.09-36.15,0-4.57,0-6.74,1.61-6.28,6.48.37,3.78,0,7.61,0,11.42V636.16c0,8.33,0,8.32-8.65,8.39-3.67,0-7.35,0-11,.21-1.68.1-3.32,1.22-5,1.16-2.33-.09-4.67-1.4-6.94-1.22-5.42.39-6.85-2.07-7-7-1.41-57.64-2.78-115.29-4.59-172.92-.48-15.17-2-30.35-3.91-45.43a41.66,41.66,0,0,0-14.29-26.83c-6.69-6-11.86-14-16.36-21.9-4.25-7.45-2.6-11.68,3.92-17.22,7.37-6.31,12.61-13.86,14.74-23.33,2.69-11.94-1.35-21.28-11.12-25.1-4.53-1.79-9.22-3.65-14-4.21-12.33-1.43-20.22-8.23-24.26-19.33a76.78,76.78,0,0,0-19.21-29.29c-7.78-7.48-11.87-16.47-10.67-27.58a23.14,23.14,0,0,0-1-10.73c-1.24-3.1-3.8-6.88-6.67-7.89-4.91-1.77-6-4.5-5.5-8.92.16-1.71,0-3.46,0-5.19,0-24.77.06-49.53-.1-74.3,0-1.77-1.37-4.8-2.51-5-3.7-.69-2.41,2.62-2.88,4.63-.64,2.64-.78,5.68-2.22,7.81a178.23,178.23,0,0,1-11.79,15.19c-8.34,9.85-21,12.72-31.59,18.94-2.43,1.42-4.89,2.79-7.33,4.18l.3,1.78c8.62.76,17.29,1.26,25.87,2.36,6,.81,12.12,1.75,17.74,3.81,5,1.82,8.8,5.83,9,11.71s.11,11.78,0,17.66a9.06,9.06,0,0,1-1,3.88c-1.77,3.44-4.14,6.61-5.51,10.19-2.3,6-3.36,12.47-6.07,18.23-9.85,20.93-22.93,39.91-37.84,57.59-2.47,2.94-7.32,4.08-11.25,5.62-9.67,3.76-19.48,7.22-29.17,11a7.52,7.52,0,0,0-3.18,3.28c-6.88,11.9-3.22,24.87,8.92,30.93,11.14,5.55,16.16,22.39,4.83,31.91-17,14.25-27.19,33.2-28.45,55.95-.89,16.05-2.27,32.14-2.53,48.16-.81,49-1.21,98-1.7,147-.11,14.14,0,28.28,0,42.62h-24.5v-6.55q.12-75.87,0-151.73a31.21,31.21,0,0,0-1.38-8.58c-1.44-5-3.67-5.65-7.71-2.36a16.7,16.7,0,0,0-4.05,4.73c-4.1,7.35-6.84,15.08-6.84,23.68.09,23.2,0,46.41,0,69.63,0,2.81-.27,5.64-.47,9.19q-2-1.07-3.86-2.33c-6.93-5.49-13.88-10.91-20.69-16.51-1-.87-2.2-2.64-2-3.81,1.13-7.59-4.81-10.8-8.75-15.33l-4,3.32c-.92-3.7-1.93-6.6-2.35-9.61q-2.61-18.78-4.87-37.61c-3.83-32.05-18.92-58.62-42.05-80.43-19.13-18-43-28.65-67.93-36.67-5.56-1.79-6.91-3.92-6.76-9.22.36-12.6.14-12.5,12.34-16a7.38,7.38,0,0,0,4.34-4.12c1-2.88.86-6.11,1.29-9.19,2.29-16.56,4.63-33.13,6.9-49.7.91-6.58,1.67-13.17,2.68-20.69H502.49V270.61c4.67-.37,8.2-.28,11.53-1,11.56-2.48,16.68-12.66,11.49-22.37-6.63-12.43-27.14-15.24-36.66-5a57,57,0,0,0-4.24,5.77c-16.82-12.23-34.45-14.11-53.28-6.38a6,6,0,0,1-4.86-.28c-12-8.21-23.72-6-35.38.44-4.48,2.5-8.17,5.92-7.43,11.52s5,8.6,10.38,9.6c4.9,1,9.92,1.37,16.11,2.2v31.71c-1.79.1-4.91.71-7.94.35-5.32-.64-7,1.31-7,6.54.12,22-.12,44-.2,66,0,9.59,0,9.59,9.17,12.19,12,3.41,11.9,3.41,12,15.67,0,3.55-1.44,5.11-4.32,6.73-15.53,8.81-31.18,17.49-46.35,26.9-18.18,11.29-30.57,28.13-41.89,45.69-4.66,7.21-9.54,14.56-12.5,22.5-7,18.76-7.75,38.55-7.36,58.33a10.53,10.53,0,0,1-3.55,8.64c-1.43,1.37-2,3.9-2.39,6a17,17,0,0,0,0,5.69c1.16,8.73-1.14,15.42-9.35,20.34-5,3-8.78,7.89-14.06,12.9-.18-4-.42-6.9-.42-9.76,0-23.21.22-46.42-.11-69.62a190.82,190.82,0,0,0-2.56-25.25c-1.14-7.51-6.39-10.56-13.78-8-3.27,1.13-8.48.13-8.42,6.41.27,26.67.2,53.34.51,80,.05,4.45-1.15,6.39-5.75,6.32-11.72-.17-23.44-.3-35.14-.1-4.81.08-6.28-1.57-6.28-6.34q.15-140.55.15-281.1c0-21-.12-41.91,0-62.85,0-3.77-1.18-5-5.1-5-27.65.11-55.27,0-82.91.11-12.39.07-12.39.31-12.39,12.83V569c-.06,12.11-.15,24.24,0,36.36,0,3.55-1.07,5-4.79,4.88-6.63-.16-13.29,0-19.93,0-7.31,0-7.31,0-7.31-7V485.46H16.08a27.81,27.81,0,0,1-6.28-.38H6.05V717.71H1291.1c2.61,0,5.23.19,7.84.29l.06-50.93C1298.52,663.81,1297.45,660.51,1297.71,657.31ZM449.2,292c-.23,3.51-.78,5.7-5.37,5.52-9.9-.39-19.82-.12-29.6-.12V264.83c5.63,14.08,17.34,18.89,30.51,21.3C448.89,286.87,449.43,288.43,449.2,292Zm10.15,5.3c-4,0-2.8-3.65-3-6s-.17-4.26,3-5a99.31,99.31,0,0,0,16.36-4.9c7.36-3.12,12.06-9.08,14.77-16.67,5.16,1.12,7.56,3.59,7.26,9-.44,7.55-.12,15.13-.12,23.64h0v0C484.69,297.31,472,297.44,459.35,297.25Z" transform="translate(-1 -112.42)"/><path class="cls-2" d="M497.62,297.31h0v0Z" transform="translate(-1 -112.42)"/><path class="cls-3" d="M1292.65,660.32c.45-5.47-1.73-6.72-6.9-6.56-11.7.36-23.43-.07-35.14.18-4.29.09-5.36-1.4-5.3-5.4.16-13.15,0-26.3,0-39.45V510.36c0-18.45-.14-18.33-12.66-31.88Q1181,422.3,1129.31,366.14c-3.69-4-7.41-8-11.12-12l-1.51,1v6.13q-.08,96.9-.08,193.81v84.68c0,7.69-.06,7.73-8,7.79-6.82.08-13.64.05-20.46,0-7.65,0-7.59-.08-7.59-7.65,0-47.1,0-94.25.08-141.32,0-4.55-1.47-6.11-6.07-5.94-8.38.3-16.78.08-25.17.08-8.57,0-8.57,0-8.57-8.69V169.41c-2.57-.23-4.67-.57-6.69-.57-9.26-.14-18.51-.14-27.77-.14-12,0-24.1.09-36.14,0-4.57,0-6.74,1.61-6.29,6.48.37,3.77,0,7.61,0,11.41V639.16c0,8.34,0,8.33-8.64,8.4-3.67,0-7.35,0-11,.21-1.68.1-3.33,1.22-5,1.16-2.32-.09-4.67-1.4-6.93-1.22-5.42.39-6.86-2.08-7-7-1.4-57.64-2.78-115.29-4.59-172.92-.47-15.17-2-30.36-3.9-45.43a41.7,41.7,0,0,0-14.3-26.83c-6.69-6-11.85-14-16.35-21.91-4.26-7.45-2.6-11.67,3.92-17.21,7.37-6.31,12.61-13.86,14.74-23.34,2.69-11.94-1.36-21.27-11.12-25.1-4.53-1.78-9.22-3.64-14-4.2-12.34-1.44-20.22-8.24-24.27-19.33a76.82,76.82,0,0,0-19.21-29.3c-7.77-7.47-11.86-16.47-10.66-27.57a23.3,23.3,0,0,0-1-10.74c-1.25-3.09-3.8-6.88-6.67-7.88s-4.45-2.43-5.14-4.3h-6a9.21,9.21,0,0,1-.92,2.83c-1.76,3.43-4.13,6.61-5.51,10.18-2.29,6-3.35,12.47-6.06,18.23-9.86,20.93-22.93,39.91-37.84,57.59-2.48,2.94-7.32,4.09-11.25,5.63-9.68,3.75-19.49,7.22-29.17,11a7.52,7.52,0,0,0-3.19,3.27c-6.87,11.91-3.21,24.88,8.92,30.94,11.14,5.55,16.17,22.38,4.83,31.91-17,14.25-27.18,33.2-28.45,55.94-.89,16.06-2.26,32.14-2.52,48.17-.81,49-1.22,98-1.7,147-.11,14.14,0,28.28,0,42.61H669.51v-6.55q.12-75.87,0-151.72a31,31,0,0,0-1.37-8.59c-1.45-5-3.67-5.65-7.72-2.36a16.86,16.86,0,0,0-4,4.74c-4.11,7.35-6.84,15.07-6.84,23.67.09,23.21,0,46.42,0,69.63,0,2.82-.28,5.64-.47,9.2a43.06,43.06,0,0,1-3.86-2.34c-6.94-5.49-13.88-10.9-20.7-16.5-1-.87-2.19-2.65-2-3.82,1.13-7.58-4.8-10.8-8.74-15.32l-4,3.31a97.71,97.71,0,0,1-2.34-9.6q-2.61-18.79-4.88-37.61c-3.83-32.05-18.91-58.62-42-80.44-19.13-18-43-28.65-67.93-36.66-5.56-1.79-6.92-3.93-6.76-9.23.35-12.6.14-12.5,12.33-16a7.44,7.44,0,0,0,4.35-4.13c1-2.87.86-6.11,1.28-9.18q3.45-24.85,6.91-49.71c.91-6.58,1.66-13.17,2.68-20.69H497.43V273.62c4.67-.37,8.2-.28,11.54-1,11.55-2.49,16.68-12.66,11.48-22.38-6.63-12.43-27.13-15.23-36.66-5a58,58,0,0,0-4.23,5.76c-16.82-12.22-34.46-14.11-53.28-6.38a6,6,0,0,1-4.86-.28c-11.95-8.21-23.72-6-35.39.44-4.48,2.51-8.17,5.92-7.43,11.52s5,8.61,10.38,9.61c4.91.95,9.92,1.37,16.12,2.19v31.72c-1.8.1-4.91.7-8,.34-5.31-.63-6.95,1.31-6.95,6.54.12,22-.12,44-.2,66,0,9.6,0,9.6,9.17,12.19,12,3.42,11.89,3.42,12,15.67,0,3.55-1.45,5.11-4.32,6.74-15.54,8.81-31.19,17.48-46.35,26.9-18.18,11.28-30.58,28.12-41.9,45.69-4.65,7.21-9.53,14.55-12.5,22.49-7,18.76-7.75,38.55-7.36,58.33a10.53,10.53,0,0,1-3.54,8.65c-1.44,1.37-2,3.89-2.4,6a17.46,17.46,0,0,0,0,5.68c1.16,8.74-1.13,15.43-9.34,20.35-5,3-8.79,7.89-14.06,12.9-.19-4-.43-6.91-.43-9.77,0-23.21.22-46.41-.11-69.62a189.33,189.33,0,0,0-2.56-25.25c-1.13-7.51-6.39-10.55-13.78-8-3.26,1.13-8.48.13-8.42,6.41.27,26.67.2,53.34.52,80,0,4.45-1.16,6.39-5.76,6.32-11.71-.17-23.43-.3-35.14-.1-4.81.08-6.28-1.57-6.28-6.34q.17-140.53.16-281.1c0-20.95-.13-41.9,0-62.85,0-3.76-1.19-5-5.11-5-27.65.11-55.27,0-82.9.11-12.39.07-12.39.31-12.39,12.83V572c-.07,12.12-.16,24.25,0,36.37,0,3.54-1.08,5-4.8,4.87-6.63-.16-13.28,0-19.92,0-7.31,0-7.31,0-7.31-7V488.46H22.9v.12H1V720.72H1286.05c2.61,0,5.23.18,7.83.28l.07-50.93C1293.47,666.82,1292.4,663.51,1292.65,660.32ZM444.14,295c-.23,3.52-.77,5.7-5.36,5.52-9.9-.39-19.83-.12-29.61-.12V267.83c5.64,14.08,17.34,18.9,30.52,21.3C443.83,289.87,444.38,291.44,444.14,295Zm10.15,5.3c-4,0-2.8-3.65-3-6s-.16-4.26,3-5a99,99,0,0,0,16.36-4.89c7.36-3.13,12.06-9.09,14.77-16.68,5.17,1.12,7.56,3.6,7.26,9-.43,7.55-.11,15.13-.11,23.64C479.64,300.31,467,300.44,454.29,300.25Z" transform="translate(-1 -112.42)"/><path class="cls-3" d="M812.52,200c.16-1.72,0-3.47,0-5.19,0-24.77.06-49.54-.11-74.31,0-1.77-1.36-4.79-2.5-5-3.7-.69-2.42,2.63-2.88,4.63-.64,2.65-.78,5.68-2.23,7.81A176.37,176.37,0,0,1,793,143.15c-8.34,9.84-21,12.72-31.59,18.94-2.43,1.42-4.88,2.78-7.33,4.17l.3,1.79c8.63.76,17.29,1.26,25.88,2.36,6,.8,12.12,1.74,17.74,3.81,5,1.82,8.79,5.82,9,11.7s.11,11.78,0,17.66c0,.36-.05.71-.1,1.06h6A10.06,10.06,0,0,1,812.52,200Z" transform="translate(-1 -112.42)"/><rect class="cls-2" x="1153.35" y="407.16" width="19.33" height="15.62"/><rect class="cls-4" x="1186.38" y="407.16" width="19.33" height="15.62"/><rect class="cls-4" x="1153.02" y="437.21" width="19.33" height="15.62"/><rect class="cls-2" x="1187.05" y="437.21" width="19.33" height="15.62"/><rect class="cls-2" x="1153.35" y="470.59" width="19.33" height="15.62"/><rect class="cls-4" x="1186.38" y="470.59" width="19.33" height="15.62"/><rect class="cls-4" x="1153.02" y="500.64" width="19.33" height="15.62"/><rect class="cls-2" x="1187.05" y="500.64" width="19.33" height="15.62"/><rect class="cls-2" x="120.01" y="164.63" width="19.33" height="15.62"/><rect class="cls-4" x="153.03" y="164.63" width="19.33" height="15.62"/><rect class="cls-4" x="119.67" y="194.67" width="19.33" height="15.62"/><rect class="cls-2" x="153.71" y="194.67" width="19.33" height="15.62"/><rect class="cls-2" x="120.01" y="228.07" width="19.33" height="15.62"/><rect class="cls-4" x="153.03" y="228.07" width="19.33" height="15.62"/><rect class="cls-4" x="119.67" y="258.11" width="19.33" height="15.62"/><rect class="cls-2" x="153.71" y="258.11" width="19.33" height="15.62"/><rect class="cls-2" x="120.91" y="289.94" width="19.33" height="15.62"/><rect class="cls-4" x="153.93" y="289.94" width="19.33" height="15.62"/><rect class="cls-4" x="120.57" y="319.99" width="19.33" height="15.62"/><rect class="cls-2" x="154.61" y="319.99" width="19.33" height="15.62"/><rect class="cls-2" x="120.91" y="353.38" width="19.33" height="15.62"/><rect class="cls-4" x="153.93" y="353.38" width="19.33" height="15.62"/><rect class="cls-4" x="120.57" y="383.43" width="19.33" height="15.62"/><rect class="cls-2" x="154.61" y="383.43" width="19.33" height="15.62"/></svg>