<?xml version="1.0" encoding="utf-8"?>
<!-- Generator: Adobe Illustrator 22.1.0, SVG Export Plug-In . SVG Version: 6.00 Build 0)  -->
<svg version="1.1" id="Layer_1" xmlns="http://www.w3.org/2000/svg" xmlns:xlink="http://www.w3.org/1999/xlink" x="0px" y="0px"
	 viewBox="0 0 1500 500" style="enable-background:new 0 0 1500 500;" xml:space="preserve">
<style type="text/css">
	.st0{fill:#FFFFFF;}
</style>
<title>Asset 1</title>
<g id="Lockup_x5F_white">
	<path class="st0" d="M346.8,82.4H71.6c-25.2,0-45.9,20.6-45.9,47v55c0,0,58.9,34,62.6,36.2c4.7,2.7,10.7,2.9,15.4,0.2
		c4-2.3,121-69.9,122.8-70.9c5.1-3,9.9-1.6,12.5-0.1c2.5,1.5,9.8,5.6,13.3,7.7c4.9,2.9,2.9,8.8,0.1,10.4
		c-3.2,1.8-140.8,81.3-147.2,85c-6.3,3.7-10.9,4-17.6,0.2c-9.2-5.2-46.6-26.8-61.9-35.7v30.6c0,0,58.9,34,62.6,36.2
		c4.7,2.7,10.7,2.9,15.4,0.2c4-2.3,121-69.9,122.8-70.9c5.1-3,9.9-1.6,12.5-0.1c2.5,1.5,9.8,5.6,13.3,7.7c4.9,2.9,2.9,8.8,0.1,10.4
		c-3.2,1.8-140.8,81.3-147.2,85c-6.3,3.7-10.9,4-17.6,0.2c-9.2-5.2-46.6-26.9-61.9-35.7v30.6c0,0,58.9,34,62.6,36.2
		c4.7,2.7,10.7,2.9,15.4,0.2c4-2.3,121-69.9,122.8-70.9c5.1-3,9.9-1.6,12.5-0.1c2.5,1.5,9.8,5.6,13.3,7.7c4.9,2.9,2.9,8.8,0.1,10.4
		c-3.2,1.8-140.8,81.3-147.2,85c-6.3,3.7-10.9,4-17.6,0.2c-9.2-5.2-46.6-26.9-61.9-35.7v60.1c0,24.1,20.6,44.8,45.9,44.8h275.2
		c25.2,0,45.9-20.6,45.9-45.9V128.3C392.6,103,372,82.4,346.8,82.4z"/>
	<g>
		<path id="XMLID_23_" class="st0" d="M624.9,300.4c0-12,2.2-23,6.5-32.8c4.3-9.8,10.2-18.2,17.6-25.2c7.4-7,16.2-12.4,26.3-16.2
			c10.2-3.8,20.9-5.7,32.3-5.7c11.4,0,22.2,1.9,32.3,5.7c10.1,3.8,18.9,9.2,26.3,16.2c7.4,7,13.3,15.4,17.6,25.2
			c4.3,9.8,6.5,20.8,6.5,32.8c0,12-2.2,23-6.5,32.8c-4.3,9.8-10.2,18.2-17.6,25.2c-7.4,7-16.2,12.4-26.3,16.1
			c-10.1,3.8-20.9,5.7-32.3,5.7c-11.4,0-22.2-1.9-32.3-5.7c-10.1-3.8-18.9-9.2-26.3-16.1c-7.4-7-13.3-15.4-17.6-25.2
			C627.1,323.4,624.9,312.4,624.9,300.4 M662.9,300.4c0,5.9,1,11.6,3,17.1c2,5.5,5,10.4,8.9,14.6c3.9,4.2,8.6,7.6,14.1,10.1
			c5.5,2.5,11.7,3.8,18.7,3.8c7,0,13.2-1.3,18.7-3.8c5.5-2.5,10.2-5.9,14.1-10.1c3.9-4.2,6.9-9.1,8.9-14.6c2-5.5,3-11.2,3-17.1
			c0-5.9-1-11.6-3-17.1c-2-5.5-5-10.3-8.9-14.6c-3.9-4.2-8.6-7.6-14.1-10.1c-5.5-2.5-11.7-3.8-18.7-3.8c-7,0-13.2,1.3-18.7,3.8
			c-5.5,2.5-10.2,5.9-14.1,10.1c-3.9,4.2-6.9,9.1-8.9,14.6C664,288.8,662.9,294.5,662.9,300.4"/>
		<path id="XMLID_20_" class="st0" d="M936.2,353.7h-0.6c-5.5,9.3-12.9,16.1-22.2,20.3c-9.3,4.2-19.3,6.3-30.1,6.3
			c-11.8,0-22.3-2-31.6-6.2c-9.2-4.1-17.1-9.8-23.6-17c-6.6-7.2-11.5-15.6-14.9-25.4c-3.4-9.7-5.1-20.2-5.1-31.4
			c0-11.2,1.8-21.7,5.4-31.4c3.6-9.7,8.6-18.2,15-25.4c6.4-7.2,14.2-12.8,23.3-16.9c9.1-4.1,19-6.2,29.8-6.2c7.2,0,13.5,0.7,19,2.2
			c5.5,1.5,10.3,3.4,14.6,5.7c4.2,2.3,7.8,4.8,10.8,7.4c2.9,2.7,5.4,5.2,7.3,7.8h1v-83.8c0-3.8,3-8.3,8.3-8.3H964
			c5,0,8.3,4.2,8.3,8.3v208.4c0,5.3-4.5,8.3-8.3,8.3h-19.6c-4.7,0-8.3-3.9-8.3-8.3V353.7z M846.1,300.4c0,5.9,1,11.6,3,17.1
			c2,5.5,5,10.4,8.9,14.6c3.9,4.2,8.6,7.6,14.1,10.1s11.7,3.8,18.7,3.8c7,0,13.2-1.3,18.7-3.8s10.2-5.9,14.1-10.1
			c3.9-4.2,6.9-9.1,8.9-14.6c2-5.5,3-11.2,3-17.1c0-5.9-1-11.6-3-17.1c-2-5.5-5-10.3-8.9-14.6c-3.9-4.2-8.6-7.6-14.1-10.1
			c-5.5-2.5-11.7-3.8-18.7-3.8c-7,0-13.2,1.3-18.7,3.8c-5.5,2.5-10.2,5.9-14.1,10.1c-3.9,4.2-6.9,9.1-8.9,14.6
			C847.1,288.8,846.1,294.5,846.1,300.4"/>
		<path id="XMLID_17_" class="st0" d="M997.6,300.4c0-12,2.2-23,6.5-32.8c4.3-9.8,10.2-18.2,17.6-25.2c7.4-7,16.1-12.4,26.3-16.2
			c10.2-3.8,20.9-5.7,32.3-5.7c11.4,0,22.2,1.9,32.3,5.7c10.1,3.8,18.9,9.2,26.3,16.2c7.4,7,13.3,15.4,17.6,25.2
			c4.3,9.8,6.5,20.8,6.5,32.8c0,12-2.2,23-6.5,32.8c-4.3,9.8-10.2,18.2-17.6,25.2c-7.4,7-16.2,12.4-26.3,16.1
			c-10.1,3.8-20.9,5.7-32.3,5.7c-11.4,0-22.2-1.9-32.3-5.7c-10.1-3.8-18.9-9.2-26.3-16.1c-7.4-7-13.3-15.4-17.6-25.2
			C999.8,323.4,997.6,312.4,997.6,300.4 M1035.6,300.4c0,5.9,1,11.6,3,17.1c2,5.5,5,10.4,8.9,14.6c3.9,4.2,8.6,7.6,14.1,10.1
			c5.5,2.5,11.7,3.8,18.7,3.8c7,0,13.2-1.3,18.7-3.8c5.5-2.5,10.2-5.9,14.1-10.1c3.9-4.2,6.9-9.1,8.9-14.6c2-5.5,3-11.2,3-17.1
			c0-5.9-1-11.6-3-17.1c-2-5.5-5-10.3-8.9-14.6c-3.9-4.2-8.6-7.6-14.1-10.1c-5.5-2.5-11.7-3.8-18.7-3.8c-7,0-13.2,1.3-18.7,3.8
			c-5.5,2.5-10.2,5.9-14.1,10.1c-3.9,4.2-6.9,9.1-8.9,14.6C1036.6,288.8,1035.6,294.5,1035.6,300.4"/>
		<path id="XMLID_16_" class="st0" d="M1182.2,172.6c0-6.1,2.3-11.5,6.8-16c4.6-4.5,10.3-6.8,17.3-6.8c7,0,12.8,2.2,17.6,6.5
			c4.7,4.3,7.1,9.8,7.1,16.3c0,6.6-2.4,12-7.1,16.3c-4.7,4.3-10.6,6.5-17.6,6.5c-7,0-12.7-2.3-17.3-6.8
			C1184.5,184.1,1182.2,178.8,1182.2,172.6"/>
		<path id="XMLID_15_" class="st0" d="M1339.2,266.5c-3.8,0-6.6-2.9-7.1-4.1c-3.2-8.3-13.2-11.4-21.4-11.4
			c-12.8,0-22.9,5.9-22.9,16.2c0,9.9,9.7,11.9,15.8,13.7c6.6,2,19.2,4.8,26.2,6.4c7.1,1.7,13.7,4.1,19.8,7.3
			c20.2,10.5,23.1,27,23.1,36.9c0,36.6-36.3,48.8-61.5,48.8c-19.4,0-55.9-2.9-64-40c-0.8-3.6,2.4-9.1,8.3-9.1h21
			c4.1,0,6.9,3,7.7,5.4c2.7,7.4,11.3,13.1,25.7,13.1c15.5,0,24.7-6.2,24.7-14.3c0-5.3-3-10-6.9-12.7c-11.8-8-40.9-8.9-56.7-17.3
			c-6-3.2-21.2-10.6-21.2-35.6c0-34.6,31.4-49.1,59-49.1c40.7,0,55.7,25.7,57.3,35.3c0.9,5.3-2,10.7-7.9,10.7H1339.2z"/>
		<path id="XMLID_14_" class="st0" d="M1375.8,247.6v-15.7c0-3.8,3-8.3,8.2-8.3h20.3V185c0-4.1,2.8-6.7,4.9-7.6
			c1.3-0.5,12.6-5.5,21.7-9.4c6.3-2.6,11.5,2.6,11.5,7.6v48h33.6c5.2,0,8.3,4.5,8.3,8.3v15.8c0,4.6-4.1,8.3-8.3,8.3h-33.6v66.6
			c0,7.6-0.2,13.6,2.7,17.9c2.7,4,6.6,5.5,14.4,5.5c2.2,0,4.3-0.4,5.9-1c5-1.7,8.7,1.2,9.9,3.6c2.5,4.8,5.3,10.1,7.3,13.8
			c2.2,4.1,0.4,9.5-3.6,11.4c-6.4,3.1-15.4,5.7-27.6,5.7c-10.1,0-15.9-1.1-22.3-3.3c-6.4-2.2-12.6-6.9-16.2-11.5
			c-3.7-4.5-5.6-10.6-6.9-17.4c-1.4-6.8-1.7-15-1.7-23.9v-67.6h-20.2C1378.8,255.9,1375.8,251.4,1375.8,247.6"/>
		<path id="XMLID_13_" class="st0" d="M505.6,247.6v-15.7c0-3.8,3-8.3,8.2-8.3H537V185c0-4.1,2.8-6.7,4.9-7.6
			c1.3-0.5,12.6-5.5,21.7-9.4c6.3-2.6,11.5,2.6,11.5,7.6v48h33.6c5.2,0,8.3,4.5,8.3,8.3v15.8c0,4.6-4.1,8.3-8.3,8.3h-33.6v66.6
			c0,7.6-0.2,13.6,2.7,17.9c2.7,4,6.6,5.5,14.4,5.5c2.2,0,4.3-0.4,5.9-1c5-1.7,8.7,1.2,9.9,3.6c2.5,4.8,5.3,10.1,7.3,13.8
			c2.2,4.1,0.4,9.5-3.6,11.4c-6.4,3.1-15.4,5.7-27.6,5.7c-10.1,0-15.9-1.1-22.3-3.3c-6.4-2.2-12.6-6.9-16.3-11.5
			c-3.7-4.5-5.6-10.6-6.9-17.4c-1.4-6.8-1.7-15-1.7-23.9v-67.6h-23.1C508.6,255.9,505.6,251.4,505.6,247.6"/>
		<path id="XMLID_12_" class="st0" d="M1195.7,376.5h21.5c4.6,0,8.3-3.7,8.3-8.3V231.9c0-4.6-3.7-8.3-8.3-8.3h-21.5
			c-4.6,0-8.3,3.7-8.3,8.3v136.3C1187.4,372.8,1191.1,376.5,1195.7,376.5"/>
	</g>
</g>
</svg>
