<?xml version="1.0" encoding="utf-8"?>
<!-- Generator: Adobe Illustrator 22.1.0, SVG Export Plug-In . SVG Version: 6.00 Build 0)  -->
<svg version="1.1" id="Layer_1" xmlns="http://www.w3.org/2000/svg" xmlns:xlink="http://www.w3.org/1999/xlink" x="0px" y="0px"
	 viewBox="0 0 1500 500" style="enable-background:new 0 0 1500 500;" xml:space="preserve">
<style type="text/css">
	.st0{fill:#FFFFFF;}
</style>
<title>Asset 1</title>
<g id="TwistLockup-Monochrome-inverted_1_">
	<path class="st0" d="M798.4,213.2c5.6,0,31.6,0,31.6,0c4.2,0,6.8,2,8,5.9l35.9,123.4h0.7L912,219.1c1.2-3.9,3.8-5.9,8-5.9h36.5
		c2.6,0,6.5,1.1,8,5.9l37.9,123.4h0.7l36.6-123.4c1.2-3.9,3.8-5.9,8-5.9c0,0,25.3,0,29.9,0c3.3,0,10.2,3.2,7.5,11.1l-56.6,164.1
		c-1.2,4.2-3.9,6.3-8.3,6.3h-33.7c-3.9,0-7.6-2.9-8.7-6.3l-39.6-122h-0.7L898,388.9c-1,3.1-4.4,5.7-8.2,5.7c-5.1,0-33.7,0-33.7,0
		c-4.4,0-7.2-2.1-8.3-6.3l-57.4-164C788.4,218.6,792.7,213.2,798.4,213.2z"/>
	<path class="st0" d="M1151.6,223.3c0-5.7-5-10.1-10.1-10.1h-25.7c-5.6,0-10.1,4.8-10.1,10.1v161.2c0,5,4,10.1,10.1,10.1h25.7
		c5.7,0,10.1-5,10.1-10.1V223.3z"/>
	<path class="st0" d="M1287.5,262c-2.5,0-6.5,0.4-8.7-4.9c-2.4-5.7-8.4-14.1-26.1-14.1c-15.9,0-27.5,7.5-27.5,19.8
		c0,16.6,24.3,17.2,49.2,23.9c26.2,7,53.2,18.7,53.2,54.1c0,29.2-22.4,58.8-76.9,58.8c-66.6,0-75.1-43.5-75.1-49.5
		c0-8.2,5.6-9.9,10.2-9.9c0,0,22,0,25.4,0c3.3,0,8,1.8,9.4,6.3c1.4,4.7,7.7,16,31.3,16c13.1,0,29.9-3.9,29.9-17.4
		c0-18.1-22.1-21.5-45.7-26.7c-27.4-6-57-12.6-57-53.3c0-32.6,25.6-58.9,71.5-58.9c57.6,0,69.1,40,69.5,42.8
		c0.9,5.8-1.7,12.9-9.7,12.9H1287.5z"/>
	<path class="st0" d="M1330.1,241.9v-18.9c0-4.5,3.6-9.9,9.8-9.9h24.3v-48.1c0-5,3.4-8,5.9-9.1l26-11.3c7.6-3.1,13.7,3.1,13.7,9.2
		v59.4h40.2c6.2,0,9.9,5.4,9.9,9.9V242c0,5.5-4.9,9.9-9.9,9.9h-40.2v85.5c0,19.1,11.1,20.6,20.5,20.6c2.7,0,5.1-0.5,7.1-1.1
		c6-2,10.4,1.4,11.9,4.4c3,5.7,6.4,12,8.7,16.6c2.6,5,0.5,11.3-4.3,13.6c-7.7,3.7-17.9,6.8-32.6,6.8c-17.3,0-32-2.8-44.6-15.4
		c-9.9-9.9-12.4-27.8-12.4-51.7v-79.2H1340C1333.6,251.9,1330.1,246.4,1330.1,241.9"/>
	<path class="st0" d="M649.6,241.7v-18.6c0-4.5,3.6-9.9,9.8-9.9h24.3v-48.1c0-5,3.4-8,5.9-9.1c1.5-0.7,23.2-10.1,23.2-10.1
		c2.8-1.2,4.4-2,6.9-2c5.3,0,9.6,5,9.6,10v59.4h40.2c6.2,0,9.9,5.4,9.9,9.9v18.6c0,5.5-4.9,9.9-9.9,9.9h-40.2v78.2
		c0,9.1-0.3,16.2,3.2,21.5c3.2,4.8,7.9,6.6,17.3,6.6c2.7,0,5.1-0.5,7.1-1.1c6-2,10.4,1.4,11.9,4.4c3,5.7,6.4,12,8.7,16.6
		c2.6,5,0.5,11.3-4.3,13.6c-7.7,3.7-18.5,6.8-31.7,6.8c-14.9,0-31.7-1.7-44.7-14.7c-10.1-10.1-13.2-24-13.2-52.5v-79.4h-24.2
		C653.2,251.6,649.6,246.1,649.6,241.7"/>
	<ellipse class="st0" cx="1128.8" cy="149.1" rx="29.4" ry="27.4"/>
	<path class="st0" d="M459.1,44.1H135c-29.8,0-54,24.2-54,54v0v27c0,0,130.2,36.4,132.1,36.9c2.1,0.5,3,1.1,3,2.2
		c0,1.4-0.6,1.4-1.8,1.4H81v256.6v0c0,29.8,24.2,54,54,54h324.1c29.8,0,54-24.2,54-54v0V98.2v0C513.1,68.3,488.9,44.1,459.1,44.1z
		 M186.9,254.1v34.6c0,0.3-0.2,0.5-0.4,0.5c0,0-34.9,6.5-40.8,7.7c-5.8,1.1-10.7-2.7-10.7-8.7c0-6,0-78.3,0-78.3
		c0-6.9,3.5-11.4,9.4-12.1l172.2-19.1c1.1-0.1,2.3-0.3,3.6-0.3c2.8,0,3.8,2.4,3.8,5.5v15.2c-0.1,0.2-0.2,0.3-0.4,0.5l-129.1,40
		C188,242.1,186.9,246.2,186.9,254.1z M405.1,270c0,6-3.1,11.5-8.1,14.7l-38.5,24l-14.8,51.9c-0.3,1.1-1.1,1.6-2.1,1.6
		c-0.3,0-0.7-0.1-1.2-0.4l-31.7-21.9l-69.2,43.2c-4.3,2.7-9.9,0.1-9.9-5.5v-80.6c0-6.2,2.4-11.4,8.6-15
		c6.2-3.6,156.1-90.1,156.7-90.5c0.9-0.5,2-1.2,4-1.2c3.5,0,6.2,2.6,6.2,7.4V270z"/>
</g>
</svg>
