<?xml version="1.0" encoding="utf-8"?>
<!-- Generator: Adobe Illustrator 22.1.0, SVG Export Plug-In . SVG Version: 6.00 Build 0)  -->
<svg version="1.1" id="Layer_1" xmlns="http://www.w3.org/2000/svg" xmlns:xlink="http://www.w3.org/1999/xlink" x="0px" y="0px"
	 viewBox="0 0 20 20" style="enable-background:new 0 0 20 20;" xml:space="preserve">
<style type="text/css">
	.st0{fill:#FFA600;}
</style>
<title>Twitter</title>
<desc>Created with Sketch.</desc>
<g id="ETHindia-Team" transform="translate(-1068.000000, -991.000000)">
	<g id="Group-2" transform="translate(1068.000000, 991.000000)">
		<path id="Twitter" class="st0" d="M3,0h13c2.2,0,4,1.8,4,4v12c0,2.2-1.8,4-4,4H4c-2.2,0-4-1.8-4-4V3C0,1.3,1.3,0,3,0z M17.2,5.6
			c-0.5,0.2-1.1,0.4-1.7,0.5c0.6-0.4,1.1-1,1.3-1.7c-0.6,0.4-1.2,0.6-1.9,0.7c-0.5-0.6-1.3-1-2.2-1c-1.6,0-3,1.4-3,3
			c0,0.2,0,0.5,0.1,0.7C7.4,7.7,5.2,6.5,3.8,4.7c-0.3,0.5-0.4,1-0.4,1.5c0,1,0.5,1.9,1.3,2.5c-0.5,0-0.9-0.1-1.3-0.4l0,0
			c0,1.5,1,2.7,2.4,3c-0.4,0.1-0.9,0.1-1.3,0.1c0.4,1.2,1.5,2.1,2.8,2.1c-1,0.8-2.3,1.3-3.7,1.3c-0.2,0-0.5,0-0.7,0
			c1.3,0.9,2.9,1.4,4.5,1.4c5.5,0,8.4-4.6,8.4-8.6c0-0.1,0-0.3,0-0.4C16.3,6.7,16.8,6.2,17.2,5.6z"/>
	</g>
</g>
</svg>
